<?xml version="1.0" standalone="no"?>
<!DOCTYPE svg PUBLIC "-//W3C//DTD SVG 1.1//EN" "http://www.w3.org/Graphics/SVG/1.1/DTD/svg11.dtd" >
<svg xmlns="http://www.w3.org/2000/svg">
<metadata></metadata>
<defs>
<font id="webfontregular" horiz-adv-x="1433" >
<font-face units-per-em="2048" ascent="1638" descent="-410" />
<missing-glyph horiz-adv-x="512" />
<glyph unicode="&#xfb01;" horiz-adv-x="1146" d="M61 936v149h154v166q0 74 17.5 121t49 75t74.5 38t97 10h149v-149h-119q-61 0 -82.5 -25t-21.5 -102v-134h582v-1085h-166v936h-414v-936h-168v936h-152zM782 1305v190h191v-190h-191z" />
<glyph unicode="&#xfb02;" horiz-adv-x="1124" d="M61 936v149h154v166q0 74 17.5 121t49 75t74.5 38t97 10h149v-149h-119q-61 0 -82.5 -25t-21.5 -102v-134h403v410h168v-1495h-168v936h-401v-936h-168v936h-152z" />
<glyph horiz-adv-x="0" />
<glyph unicode="&#xd;" horiz-adv-x="512" />
<glyph unicode=" "  horiz-adv-x="512" />
<glyph unicode="&#x09;" horiz-adv-x="512" />
<glyph unicode="&#xa0;" horiz-adv-x="512" />
<glyph unicode="!" horiz-adv-x="669" d="M215 0v236h240v-236h-240zM252 426v1008h168v-1008h-168z" />
<glyph unicode="&#x22;" horiz-adv-x="770" d="M166 975v459h129v-459h-129zM416 975v459h129v-459h-129z" />
<glyph unicode="#" horiz-adv-x="1402" d="M154 612v123h272l20 279h-227v121h234l22 299h131l-20 -299h272l21 299h133l-21 -299h258v-121h-266l-18 -279h219v-123h-228l-18 -295h-133l18 295h-272l-19 -295h-133l19 295h-264zM559 735h272l19 279h-272z" />
<glyph unicode="$" horiz-adv-x="1363" d="M123 494l176 34q14 -86 37.5 -154.5t61.5 -117.5t96.5 -80t144.5 -41q0 137 1 274.5t1 274.5q-229 61 -341 156.5t-112 242.5q0 74 30 141.5t88.5 120t143.5 84t193 35.5v123h90v-127q88 -8 163 -35.5t133 -76t97 -118t54 -161.5l-168 -37q-12 53 -31.5 98.5t-52.5 81 t-80 58t-117 28.5v-471q147 -43 245.5 -86t157 -95t83 -115.5t24.5 -145.5q0 -88 -32.5 -164t-97 -131t-160 -87t-222.5 -34v-170h-90v174q-233 23 -360 154t-156 367zM360 1083q0 -39 13.5 -71.5t46.5 -60t87 -52.5t134 -47v451q-74 -2 -127 -20.5t-87 -49.5t-50.5 -69 t-16.5 -81zM729 129q92 0 156.5 20.5t105.5 55.5t60.5 82t19.5 100q0 47 -14.5 84t-51 68.5t-103.5 60t-171 59.5q0 -133 -1 -265t-1 -265z" />
<glyph unicode="%" horiz-adv-x="1959" d="M154 1057q0 100 29.5 176t76.5 126t108.5 74.5t123.5 24.5q61 0 122.5 -24.5t109.5 -74.5t77.5 -126t29.5 -176q0 -96 -23.5 -175t-67.5 -135.5t-107 -87t-141 -30.5q-158 0 -248 112.5t-90 315.5zM295 1055q0 -135 49.5 -216t147.5 -81t148 81t50 216q0 139 -53 205.5 t-145 66.5t-144.5 -66.5t-52.5 -205.5zM408 -80l1001 1669l104 -65l-999 -1667zM1128 403q0 100 30 176t77 126.5t108.5 75t122.5 24.5t123 -24.5t110 -75t77.5 -126t29.5 -176.5q0 -96 -23.5 -174.5t-67.5 -135t-107.5 -87.5t-141.5 -31q-158 0 -248 113t-90 315zM1270 401 q0 -135 49 -216t147 -81t148.5 81t50.5 216q0 139 -53 206t-146 67q-92 0 -144 -66.5t-52 -206.5z" />
<glyph unicode="&#x26;" horiz-adv-x="1454" d="M133 383q0 55 14.5 114.5t47 118t86 114.5t131.5 106q-57 57 -96.5 122.5t-39.5 163.5q0 70 27 132.5t76 108.5t117.5 73.5t154.5 27.5q154 0 257.5 -80.5t131.5 -236.5l-151 -33q-20 88 -73.5 143.5t-162.5 55.5q-102 0 -155.5 -55.5t-53.5 -133.5q0 -68 32 -113.5 t87 -92.5l428 -375v260h152v-389l260 -224l-103 -122l-200 174q-18 -51 -55 -100.5t-94.5 -87.5t-136.5 -61.5t-179 -23.5q-96 0 -186.5 23.5t-160 75t-112.5 129t-43 186.5zM297 393q0 -70 28.5 -120t78 -81.5t115 -47t136.5 -15.5q127 0 209 61.5t105 157.5l-445 389 q-113 -61 -170 -150t-57 -194z" />
<glyph unicode="'" horiz-adv-x="518" d="M195 975v459h129v-459h-129z" />
<glyph unicode="(" horiz-adv-x="790" d="M174 610q0 221 55.5 397.5t127 303.5t137 202.5t88.5 96.5l96 -78q-70 -78 -134.5 -166t-113.5 -197.5t-78.5 -247t-29.5 -309.5q0 -147 30.5 -282t79.5 -255t112.5 -221.5t129.5 -181.5l-92 -75q-14 14 -50 57t-81 109.5t-94.5 156.5t-89.5 198.5t-66.5 232.5t-26.5 259 z" />
<glyph unicode=")" horiz-adv-x="790" d="M82 1532q70 -78 134.5 -166t113.5 -197.5t78.5 -247t29.5 -309.5q0 -147 -30.5 -282t-79.5 -255t-112.5 -221.5t-129.5 -181.5l92 -75q14 14 50 57t81 109.5t94.5 156.5t89.5 198.5t66.5 232.5t26.5 259q0 221 -55.5 397.5t-127 303.5t-137 202.5t-88.5 96.5z" />
<glyph unicode="*" horiz-adv-x="1024" d="M133 1163l72 115l239 -139v295h136v-295l241 139l70 -117l-250 -147l190 -228l-104 -92l-215 267l-213 -267l-104 92l188 228z" />
<glyph unicode="+" horiz-adv-x="1187" d="M113 711v135h407v414h148v-414h407v-135h-407v-465h-148v465h-407z" />
<glyph unicode="," horiz-adv-x="630" d="M195 0v242h241v-211q0 -51 -12 -94t-41 -76t-75 -53.5t-113 -24.5v92q59 10 78.5 43t19.5 82h-98z" />
<glyph unicode="-" horiz-adv-x="899" d="M113 623v151h673v-151h-673z" />
<glyph unicode="." horiz-adv-x="630" d="M195 0v242h241v-242h-241z" />
<glyph unicode="/" horiz-adv-x="935" d="M41 -31l737 1557l117 -53l-737 -1553z" />
<glyph unicode="0" horiz-adv-x="1271" d="M102 735q0 180 40 317.5t112 228.5t169 137t214 46q115 0 213 -46t169 -137t110.5 -228.5t39.5 -317.5q0 -373 -142 -569.5t-390 -196.5q-250 0 -392.5 195.5t-142.5 570.5zM276 737q0 -289 90.5 -450.5t270.5 -161.5q178 0 269 163t91 449q0 279 -94 425.5t-266 146.5 q-174 0 -267.5 -146.5t-93.5 -425.5z" />
<glyph unicode="1" horiz-adv-x="927" d="M143 1044v185l330 205h137v-1434h-157v1239z" />
<glyph unicode="2" horiz-adv-x="1187" d="M123 995q4 113 42 200t102.5 147.5t152.5 91t190 30.5q111 0 195 -33.5t141.5 -90t86 -132t28.5 -159.5q0 -104 -36 -177t-93.5 -127.5t-129 -94.5t-140.5 -77q-63 -35 -112.5 -61.5t-86.5 -50t-64.5 -47t-46.5 -54.5q-25 -39 -33 -83t-8 -107h754v-170h-934v129 q0 100 16.5 174t57.5 133q45 70 124 124t195 116q92 51 163 91t117 82t69.5 91t23.5 117q0 45 -16.5 91t-51 82t-90 58.5t-133.5 22.5q-141 0 -226 -86t-93 -246z" />
<glyph unicode="3" horiz-adv-x="1202" d="M92 471l166 33q25 -193 104.5 -287t245.5 -94q82 0 142.5 23.5t99.5 62.5t57.5 89t18.5 105q0 154 -80 222.5t-234 68.5h-102v148h43q29 0 83 5t107.5 27.5t93.5 68.5t40 128q0 113 -72 176.5t-195 63.5q-125 0 -196.5 -73t-87.5 -200l-160 29q8 90 45 164t95.5 126 t136 79.5t169.5 27.5q90 0 168 -24.5t136.5 -72.5t91 -119.5t32.5 -166.5q0 -66 -21.5 -117t-53 -87.5t-71.5 -60t-77 -32.5v-4q53 -12 102.5 -41.5t87 -77t60.5 -113t23 -149.5q0 -92 -35 -170.5t-98.5 -136t-151.5 -90.5t-195 -33q-102 0 -190 29t-155.5 89t-113 155.5 t-59.5 228.5z" />
<glyph unicode="4" horiz-adv-x="1155" d="M72 332v153l575 949h258v-947h178v-155h-178v-332h-164v332h-669zM242 487h499v818h-4z" />
<glyph unicode="5" horiz-adv-x="1216" d="M113 367l161 57q16 -61 45 -116.5t71 -95.5t99.5 -63.5t135.5 -23.5q154 0 243.5 94t89.5 262q0 160 -90 249t-235 89q-63 0 -114.5 -15.5t-90.5 -40t-67.5 -55t-47.5 -61.5l-151 66l129 721h706v-156h-577l-82 -453l2 -2q39 51 122 93t206 42q92 0 174 -33.5t145.5 -95 t100 -150.5t36.5 -200q0 -119 -37.5 -213t-105.5 -160.5t-159 -101.5t-197 -35q-104 0 -188.5 30t-149 83t-108.5 126t-66 159z" />
<glyph unicode="6" horiz-adv-x="1302" d="M123 694q0 170 42 312.5t115.5 244t176 157.5t223.5 56q100 0 177 -30.5t130 -80.5t86 -117t47 -136l-155 -41q-14 53 -37 99t-57.5 80t-83 53.5t-111.5 19.5q-72 0 -138.5 -35t-119.5 -108.5t-86 -185.5t-33 -265l2 -2q8 23 37 62.5t79 78.5t121.5 67.5t170.5 28.5 q96 0 183 -32.5t153.5 -95t105.5 -151.5t39 -202q0 -121 -38 -214t-105.5 -157.5t-157.5 -97.5t-195 -33q-106 0 -208.5 39t-183.5 126t-130 225.5t-49 334.5zM346 489q0 -80 25.5 -146.5t71.5 -114.5t110.5 -75.5t140.5 -27.5q160 0 246 94t86 250q0 154 -90 247t-248 93 q-74 0 -137.5 -26.5t-108.5 -71.5t-70.5 -102.5t-25.5 -119.5z" />
<glyph unicode="7" horiz-adv-x="1015" d="M41 1276v158h903v-177l-678 -1257h-194l702 1272v4h-733z" />
<glyph unicode="8" horiz-adv-x="1179" d="M84 406q0 72 23.5 132t61.5 108t86 81t97 49v4q-74 31 -132 110t-58 206q0 70 28.5 136t84 117.5t135 83t182.5 31.5q102 0 182 -31.5t135.5 -83t84 -118t28.5 -135.5q0 -63 -16.5 -114.5t-43 -91.5t-61.5 -67.5t-70 -42.5v-4q51 -18 99.5 -51t85.5 -80t58.5 -107.5 t21.5 -131.5q0 -106 -37 -187.5t-104.5 -136.5t-159.5 -84t-203 -29t-204 29t-160.5 84t-105.5 136t-38 188zM258 412q0 -123 87 -203t247 -80t246 80t86 203q0 63 -25 116.5t-69 92t-104 59t-134 20.5t-134.5 -20.5t-105.5 -58t-69.5 -91t-24.5 -118.5zM326 1079 q0 -102 71.5 -170.5t194.5 -68.5q121 0 192.5 68.5t71.5 170.5q0 45 -15.5 88t-47 76t-81.5 52.5t-120 19.5t-120 -19.5t-83 -52.5t-48 -76t-15 -88z" />
<glyph unicode="9" horiz-adv-x="1253" d="M102 979q0 113 39 202t103.5 152.5t150.5 97t183 33.5q119 0 218 -44t171.5 -136t112.5 -233.5t40 -335.5q0 -207 -40 -349.5t-108.5 -230.5t-160.5 -127t-197 -39q-184 0 -299.5 100.5t-154.5 260.5l157 49q12 -49 35 -96t58.5 -82t87 -56.5t118.5 -21.5q162 0 251 140 t91 448h-4q-6 -18 -29.5 -55.5t-67.5 -73t-112.5 -63t-164.5 -27.5q-100 0 -187.5 33.5t-152 97t-101.5 153.5t-37 203zM266 979q0 -154 88.5 -245t235.5 -91q72 0 131 24.5t101 67.5t65.5 103.5t23.5 132.5t-24.5 133t-68.5 107t-105.5 73t-134.5 27q-66 0 -123.5 -22.5 t-99.5 -65.5t-65.5 -104.5t-23.5 -139.5z" />
<glyph unicode=":" horiz-adv-x="630" d="M195 0v242h241v-242h-241zM195 844v241h241v-241h-241z" />
<glyph unicode=";" horiz-adv-x="630" d="M195 0v242h241v-211q0 -51 -12 -94t-41 -76t-75 -53.5t-113 -24.5v92q59 10 78.5 43t19.5 82h-98zM195 844v241h241v-241h-241z" />
<glyph unicode="&#x3c;" horiz-adv-x="1101" d="M113 649l2 144l798 477l76 -123l-715 -426l715 -432l-78 -121z" />
<glyph unicode="=" horiz-adv-x="1214" d="M133 510v143h948v-143h-948zM133 854v143h948v-143h-948z" />
<glyph unicode="&#x3e;" horiz-adv-x="1101" d="M82 289l78 -121l798 481l-2 144l-798 477l-76 -123l715 -426z" />
<glyph unicode="?" horiz-adv-x="1054" d="M72 1014q2 96 32.5 178t89 142.5t143.5 95t200 34.5q94 0 171.5 -28.5t134 -78.5t88.5 -121t32 -153q0 -74 -16.5 -127t-46.5 -94t-71 -75.5t-90 -71.5q-51 -41 -88 -69t-61.5 -52.5t-35.5 -49t-11 -59.5v-96h-162v113q0 37 8 67.5t27.5 59t52.5 59.5t82 68t93 69.5 t77 69.5t52.5 81t19.5 101q0 39 -13.5 80t-44 75t-80 55.5t-123.5 21.5q-84 0 -139 -28t-89 -72t-48 -100t-18 -112zM348 0v236h240v-236h-240z" />
<glyph unicode="@" horiz-adv-x="1509" d="M113 709q0 160 44 297t128 238.5t205.5 159.5t275.5 58q156 0 273.5 -57t197.5 -155.5t120 -232.5t40 -288q0 -125 -20.5 -208t-58.5 -133t-90 -71.5t-116 -21.5q-61 0 -107.5 25.5t-68.5 66.5h-4q-25 -39 -76 -65.5t-129 -26.5q-121 0 -198.5 63.5t-77.5 173.5 q0 96 52 150.5t163 85.5l108 31q68 18 103.5 36.5t35.5 65.5t-34.5 83t-116.5 36q-70 0 -111 -35t-57 -113l-111 27q12 109 89 171.5t186 62.5q119 0 196.5 -62.5t77.5 -191.5v-390q0 -45 18.5 -65.5t65.5 -20.5q90 0 130 79t40 243q0 131 -30.5 246.5t-95 202t-163 135.5 t-231.5 49t-233.5 -49t-169 -137.5t-103.5 -207t-35 -255.5q0 -135 32 -251t96.5 -201t163.5 -133t237 -48q92 0 168.5 27.5t117.5 56.5l56 -92q-43 -33 -134.5 -66t-207.5 -33q-162 0 -282 56.5t-199.5 155t-119.5 233.5t-40 295zM575 535q0 -37 15.5 -60.5t40 -38 t55.5 -20.5t62 -6t60.5 9t53 27.5t37.5 47t14 67.5v193h-4q-10 -31 -92 -54l-117 -32q-66 -18 -95.5 -46t-29.5 -87z" />
<glyph unicode="A" horiz-adv-x="1280" d="M41 0l516 1434h166l516 -1434h-172l-106 281h-644l-104 -281h-172zM369 428h542l-270 778h-4z" />
<glyph unicode="B" horiz-adv-x="1329" d="M195 0v1434h550q96 0 174 -29t132.5 -78t83 -116.5t28.5 -147.5q0 -117 -52 -185.5t-126 -101.5v-6q43 -14 85 -43t74 -72t52.5 -100t20.5 -131q0 -96 -30 -175t-91.5 -134.5t-156.5 -85t-228 -29.5h-516zM365 156h323q174 0 267.5 60t93.5 208q0 139 -89.5 195.5 t-267.5 56.5h-327v-520zM365 827h350q145 0 212.5 58.5t67.5 167.5q0 111 -74.5 168t-207.5 57h-348v-451z" />
<glyph unicode="C" horiz-adv-x="1366" d="M113 729q0 184 51 322.5t136 230.5t194.5 137t226.5 45t210 -36.5t160.5 -103.5t110.5 -159t58 -200l-173 -31q-12 74 -36.5 140.5t-66.5 116.5t-106.5 81t-156.5 31q-86 0 -164 -34t-136.5 -104.5t-93 -178t-34.5 -257.5q0 -154 32.5 -266.5t90 -187t136.5 -110.5 t169 -36q96 0 161.5 32t107.5 87t64.5 129t30.5 155l179 -22q-10 -123 -50 -223.5t-110 -171t-166 -108.5t-217 -38q-117 0 -226.5 42t-194.5 132t-136 234.5t-51 351.5z" />
<glyph unicode="D" horiz-adv-x="1366" d="M195 0v1434h448q119 0 230.5 -42t198.5 -130t139.5 -222.5t52.5 -320.5q0 -207 -54.5 -344t-143.5 -221t-202.5 -119t-232.5 -35h-436zM365 156h251q106 0 193.5 30.5t148 98t93 175t32.5 259.5q0 137 -31.5 241.5t-91 175t-143.5 106.5t-188 36h-264v-1122z" />
<glyph unicode="E" horiz-adv-x="1200" d="M195 0v1434h862v-156h-692v-465h634v-151h-634v-506h692v-156h-862z" />
<glyph unicode="F" horiz-adv-x="1161" d="M195 0v1434h864v-156h-694v-518h636v-150h-636v-610h-170z" />
<glyph unicode="G" horiz-adv-x="1380" d="M113 731q0 184 51 321.5t135 228.5t193.5 137t226.5 46q106 0 197.5 -34.5t160 -97t114.5 -149.5t64 -192l-170 -30q-14 70 -40.5 132t-69.5 108t-106.5 74t-149.5 28t-164 -34t-136.5 -104.5t-93 -178t-34.5 -255.5q0 -154 32.5 -266.5t91 -187t136.5 -111.5t168 -37 q180 0 281 111q98 106 98 292v15h-361v155h531v-139q0 -141 -41 -251.5t-114 -186.5t-173 -116t-221 -40q-119 0 -228.5 42t-193.5 134.5t-134 236.5t-50 349z" />
<glyph unicode="H" horiz-adv-x="1368" d="M195 0v1434h170v-617h641v617h168v-1434h-168v666h-641v-666h-170z" />
<glyph unicode="I" horiz-adv-x="579" d="M205 0v1434h170v-1434h-170z" />
<glyph unicode="J" horiz-adv-x="925" d="M51 307l164 45q8 -43 20.5 -83t35 -71.5t55.5 -51.5q29 -17 71 -17h9q96 2 131.5 57.5t35.5 188.5v1059h168v-1067q0 -205 -84 -299.5t-254 -98.5h-12q-72 0 -128 23q-60 26 -103 72.5t-70 109t-39 133.5z" />
<glyph unicode="K" horiz-adv-x="1210" d="M174 0v1434h170v-701h4l582 701h213l-525 -627l582 -807h-205l-489 680h-4l-158 -184v-496h-170z" />
<glyph unicode="L" horiz-adv-x="1048" d="M195 0v1434h170v-1278h622v-156h-792z" />
<glyph unicode="M" horiz-adv-x="1769" d="M195 0v1434h239l449 -1100h4l448 1100h240v-1434h-166v1196h-4l-494 -1196h-53l-493 1196h-5v-1196h-165z" />
<glyph unicode="N" horiz-adv-x="1398" d="M195 0v1434h184l653 -1153h4v1153h168v-1434h-178l-657 1153h-4v-1153h-170z" />
<glyph unicode="O" d="M113 729q0 184 51 322.5t136 230.5t194.5 137t226.5 45q115 0 222.5 -47t191.5 -140t135 -232.5t51 -323.5q0 -207 -51 -349.5t-135 -232.5t-191.5 -130t-222.5 -40q-117 0 -226.5 42t-194.5 132t-136 234.5t-51 351.5zM293 729q0 -154 32.5 -266.5t90 -187t136.5 -110.5 t169 -36q88 0 165 35t133 107.5t89 184t33 265.5q0 150 -34 259.5t-91.5 181t-134 106.5t-160.5 35q-86 0 -164 -34t-136.5 -104.5t-93 -178t-34.5 -257.5z" />
<glyph unicode="P" horiz-adv-x="1265" d="M195 0v1434h550q104 0 192.5 -29t152 -84t99.5 -138t36 -192q0 -106 -34 -188t-96.5 -137.5t-150.5 -84t-194 -28.5h-385v-553h-170zM365 709h374q61 0 118.5 16t100.5 51t69 88.5t26 126.5q0 78 -27 132.5t-71 89t-101 50t-119 15.5h-370v-569z" />
<glyph unicode="Q" d="M113 729q0 184 51 322.5t136 230.5t194.5 137t226.5 45q115 0 222.5 -47t191.5 -140t135 -232.5t51 -323.5q0 -176 -41 -305t-106 -221l135 -134l-99 -94l-131 129q-78 -66 -171 -96.5t-187 -30.5q-117 0 -226.5 42t-194.5 132t-136 234.5t-51 351.5zM293 729 q0 -154 32.5 -266.5t90 -187t136.5 -110.5t169 -36q72 0 133 19.5t113 60.5l-357 356l99 94l346 -346q41 70 63.5 171.5t22.5 236.5q0 150 -34 259.5t-91.5 181t-134 106.5t-160.5 35q-86 0 -164 -34t-136.5 -104.5t-93 -178t-34.5 -257.5z" />
<glyph unicode="R" horiz-adv-x="1316" d="M195 0v1434h550q109 0 198 -27t151.5 -79t96.5 -133t34 -187q0 -90 -27 -160t-73 -121t-111.5 -83t-141.5 -46l320 -598h-191l-311 586h-325v-586h-170zM365 737h370q63 0 121.5 13.5t103 45t70 84t25.5 128.5t-24.5 128t-67.5 83.5t-102.5 45t-129.5 13.5h-366v-541z " />
<glyph unicode="S" horiz-adv-x="1259" d="M102 494l179 34q14 -98 39.5 -172.5t71.5 -125t117 -76t175 -25.5q84 0 145.5 20.5t101.5 55.5t58.5 80t18.5 92q0 49 -13.5 86t-55.5 71.5t-120 68.5t-207 77q-115 37 -198.5 77t-138 87t-81 106.5t-26.5 136.5q0 74 29.5 142.5t88 121t141.5 83t191 30.5 q96 0 181.5 -23.5t152 -72.5t109.5 -124t57 -175l-172 -37q-12 59 -33.5 108.5t-59.5 85.5t-95.5 56.5t-139.5 20.5q-143 0 -210.5 -64.5t-67.5 -151.5q0 -39 11 -69.5t49 -60t109 -59.5t187 -69q145 -47 238.5 -93t148 -97t75 -112.5t20.5 -141.5q0 -84 -33 -159.5 t-95.5 -132t-155.5 -90.5t-216 -34q-262 0 -402.5 134.5t-173.5 390.5z" />
<glyph unicode="T" horiz-adv-x="1157" d="M51 1278v156h1055v-156h-442v-1278h-168v1278h-445z" />
<glyph unicode="U" horiz-adv-x="1345" d="M164 467v967h170v-955q0 -174 85 -262t253 -88q170 0 256 89t86 257v959h168v-967q0 -250 -135.5 -374t-374.5 -124q-240 0 -374 124t-134 374z" />
<glyph unicode="V" horiz-adv-x="1284" d="M41 1434h182l422 -1227h4l414 1227h180l-495 -1434h-201z" />
<glyph unicode="W" horiz-adv-x="1859" d="M92 1434h174l215 -1184h4l357 1184h178l358 -1184h4l211 1184h174l-264 -1434h-209l-362 1188h-4l-361 -1188h-211z" />
<glyph unicode="X" horiz-adv-x="1185" d="M51 0l443 748l-406 686h191l319 -566h4l307 566h187l-398 -701l437 -733h-189l-352 612h-4l-350 -612h-189z" />
<glyph unicode="Y" horiz-adv-x="1171" d="M31 1434h188l365 -666h4l364 666h189l-473 -830v-604h-164v604z" />
<glyph unicode="Z" horiz-adv-x="1241" d="M113 0v139l802 1135v4h-765v156h978v-140l-804 -1132v-4h788v-158h-999z" />
<glyph unicode="[" horiz-adv-x="761" d="M174 -373v1868h496v-121h-365v-1626h365v-121h-496z" />
<glyph unicode="\" horiz-adv-x="935" d="M41 1473l117 53l737 -1557l-117 -49z" />
<glyph unicode="]" horiz-adv-x="761" d="M112 -252v-121h496v1868h-496v-121h365v-1626h-365z" />
<glyph unicode="^" horiz-adv-x="1116" d="M154 666l354 768h100l355 -768h-154l-250 571l-252 -571h-153z" />
<glyph unicode="_" horiz-adv-x="1294" d="M133 -143h1028v-140h-1028v140z" />
<glyph unicode="`" horiz-adv-x="591" d="M113 1466h206l160 -247h-145z" />
<glyph unicode="a" horiz-adv-x="1105" d="M102 279q0 68 19.5 120t63.5 91.5t114 71.5t168 56q74 18 131 35t97 37.5t61.5 47t21.5 67.5q0 66 -52 114t-175 48q-63 0 -109.5 -16.5t-77 -46.5t-49 -68.5t-28.5 -83.5l-152 43q12 68 45 127t84 102t122 67.5t159 24.5t163.5 -21.5t129 -67.5t84 -118.5t30.5 -177.5 v-731h-147v119h-4q-12 -20 -38 -46t-67 -49.5t-97 -39t-130 -15.5q-96 0 -164.5 24.5t-114 67.5t-67 99.5t-21.5 118.5zM266 289q0 -74 47 -122t168 -48q78 0 135.5 18.5t96.5 50t57 73.5t18 87v270h-4q-6 -12 -18 -24t-42 -27.5t-82 -35t-136 -42.5q-74 -20 -120 -40.5 t-72.5 -45t-37 -53t-10.5 -61.5z" />
<glyph unicode="b" horiz-adv-x="1220" d="M174 0v1495h168v-514h4q41 49 116 92t185 43q100 0 187.5 -41t150 -115.5t98 -180t35.5 -236.5t-33.5 -236.5t-95 -180.5t-148.5 -116t-194 -41q-61 0 -111.5 13.5t-90 34t-69.5 44t-46 43.5h-4v-104h-152zM342 360q0 -47 20.5 -90t57.5 -76.5t88 -53t113 -19.5 q164 0 246.5 111.5t82.5 310.5t-83 310.5t-246 111.5q-68 0 -120 -25t-87 -62.5t-53.5 -86t-18.5 -95.5v-336z" />
<glyph unicode="c" horiz-adv-x="1140" d="M102 543q0 135 39 241.5t105.5 180t157 112.5t192.5 39q88 0 164 -29.5t134 -82t96 -125t50 -160.5l-157 -33q-10 53 -32 103.5t-56.5 89.5t-83.5 62.5t-115 23.5q-143 0 -235.5 -108.5t-92.5 -313.5q0 -199 88 -310.5t242 -111.5q66 0 116 25.5t86 67.5t57.5 95 t29.5 107l162 -33q-12 -94 -51.5 -171t-98.5 -130t-136 -83t-167 -30q-106 0 -196.5 38t-157 112t-103.5 180.5t-37 243.5z" />
<glyph unicode="d" horiz-adv-x="1220" d="M102 543q0 133 37 239.5t100.5 180t149.5 113.5t184 40q111 0 186 -43t115 -92h5v514h168v-1495h-152v104h-4q-16 -20 -46 -43.5t-70 -44t-90 -34t-112 -13.5q-109 0 -195.5 41t-148 116t-94.5 180.5t-33 236.5zM270 543q0 -199 83 -310.5t247 -111.5q61 0 112.5 19.5 t88.5 53t57.5 76.5t20.5 90v336q0 47 -18.5 95.5t-53.5 86t-87 62.5t-120 25q-164 0 -247 -112t-83 -310z" />
<glyph unicode="e" horiz-adv-x="1187" d="M102 543q0 131 37 237.5t103.5 181t156.5 114.5t199 40q106 0 196.5 -39t155 -112.5t100 -180t35.5 -241.5v-49h-815q0 -72 20.5 -139.5t61.5 -120t103.5 -83t146.5 -30.5q82 0 137.5 23.5t92 56t58 69.5t36.5 64l135 -88q-27 -53 -68 -103.5t-97 -88.5t-129 -61.5 t-161 -23.5q-109 0 -201 40t-159.5 115t-105.5 180.5t-38 238.5zM274 627h646q-2 59 -19.5 119.5t-55.5 108.5t-98.5 79t-148.5 31t-149.5 -34t-99.5 -85t-56.5 -110.5t-18.5 -108.5z" />
<glyph unicode="f" horiz-adv-x="675" d="M61 936v149h154v166q0 74 17.5 121t49 75t74.5 38t97 10h174v-149h-144q-63 0 -84.5 -25t-21.5 -102v-134h268v-149h-266v-936h-166v936h-152z" />
<glyph unicode="g" horiz-adv-x="1214" d="M102 543q0 133 37 239.5t101.5 180t151.5 113.5t186 40q104 0 180 -37t125 -98h4v104h164v-1101q0 -238 -118 -357t-319 -119q-86 0 -156.5 23t-123.5 62.5t-91 93t-59 116.5l142 72q14 -43 36.5 -82t55.5 -68.5t80 -48t112 -18.5q133 0 204 77t71 214v145h-4 q-37 -43 -109 -84t-192 -41q-106 0 -194.5 40t-151 114t-97.5 180.5t-35 239.5zM270 543q0 -199 85 -310.5t249 -111.5q61 0 112.5 19.5t89.5 52t58.5 74.5t20.5 89v344q0 45 -18.5 92.5t-54.5 86.5t-88 62.5t-120 23.5q-162 0 -248 -112t-86 -310z" />
<glyph unicode="h" horiz-adv-x="1216" d="M174 0v1495h168v-518h4q45 59 131 99t187 40q84 0 154.5 -25.5t122.5 -76.5t82 -128t30 -177v-709h-168v664q0 137 -59.5 218t-192.5 81q-135 0 -213 -78t-78 -203v-682h-168z" />
<glyph unicode="i" horiz-adv-x="540" d="M174 1305v190h193v-190h-193zM186 0v1085h168v-1085h-168z" />
<glyph unicode="j" horiz-adv-x="528" d="M51 -240h35q43 0 67.5 21.5t24.5 93.5v1210h168v-1214q0 -154 -60.5 -212t-166.5 -58h-68v159zM164 1305v190h190v-190h-190z" />
<glyph unicode="k" horiz-adv-x="1105" d="M174 0v1495h168v-907h4l457 497h223l-397 -430l446 -655h-194l-373 551h-4l-162 -174v-377h-168z" />
<glyph unicode="l" horiz-adv-x="518" d="M174 0v1495h170v-1495h-170z" />
<glyph unicode="m" horiz-adv-x="1740" d="M174 0v1085h152v-104h4q39 59 113.5 97t162.5 38q55 0 100.5 -13t81 -36t62.5 -51.5t43 -59.5h4q18 31 47 59.5t68 51.5t87 36t103 13q174 0 274.5 -101.5t100.5 -275.5v-739h-162v688q0 135 -53 205t-168 70q-113 0 -175.5 -69t-62.5 -192v-702h-161v688 q0 135 -52.5 205t-169.5 70q-63 0 -107 -21.5t-71.5 -56.5t-41 -83t-13.5 -100v-702h-166z" />
<glyph unicode="n" horiz-adv-x="1202" d="M174 0v1085h164v-104h4q43 57 126 96t179 39q176 0 283.5 -106.5t107.5 -296.5v-713h-166v659q0 147 -60 225.5t-189 78.5q-125 0 -203 -71t-78 -200v-692h-168z" />
<glyph unicode="o" horiz-adv-x="1183" d="M102 543q0 139 40 245.5t108.5 179t158 110.5t187.5 38q96 0 184 -38t154.5 -110.5t106.5 -179t40 -245.5t-37.5 -246t-103.5 -179.5t-154 -110.5t-190 -38q-104 0 -194.5 38t-157 110.5t-104.5 179t-38 246.5zM268 543q0 -104 25.5 -184t70 -132.5t104.5 -79t128 -26.5 q66 0 124 27.5t101 81t68.5 132t25.5 181.5q0 102 -24.5 181t-67.5 132t-101 81t-126 28q-70 0 -129 -27t-103.5 -80t-70 -132t-25.5 -183z" />
<glyph unicode="p" horiz-adv-x="1224" d="M174 -461v1546h160v-104h4q16 20 45 45t69 44.5t89 32.5t108 13q98 0 185.5 -40t151 -113.5t100 -180t36.5 -239.5t-34.5 -239.5t-97 -180.5t-149.5 -114t-192 -40q-55 0 -104 13.5t-88 34t-68 44t-43 43.5h-4v-565h-168zM342 356q0 -47 20.5 -89t57.5 -74.5t88 -52 t113 -19.5q164 0 249.5 111.5t85.5 310.5t-87 310.5t-248 111.5q-68 0 -119 -23.5t-87 -62.5t-54.5 -86.5t-18.5 -92.5v-344z" />
<glyph unicode="q" horiz-adv-x="1224" d="M102 543q0 133 37 239.5t101.5 180t151.5 113.5t186 40q57 0 106 -13t89 -32.5t68.5 -44.5t47.5 -45h4v104h158v-1546h-166v565h-4q-12 -16 -37 -39.5t-63 -45t-89 -36t-117 -14.5q-104 0 -191 40t-149.5 114t-97.5 180.5t-35 239.5zM270 543q0 -199 85 -310.5 t249 -111.5q61 0 112.5 19.5t89.5 52t58.5 74.5t20.5 89v344q0 45 -18.5 92.5t-54.5 86.5t-88 62.5t-120 23.5q-162 0 -248 -112t-86 -310z" />
<glyph unicode="r" horiz-adv-x="718" d="M174 0v1085h160v-116h4q35 70 99.5 102.5t125.5 32.5q20 0 37.5 -3t30.5 -7q14 -6 26 -11l-30 -165q-10 4 -23 8q-10 4 -26.5 6t-36.5 2q-104 0 -151.5 -67.5t-47.5 -221.5v-645h-168z" />
<glyph unicode="s" horiz-adv-x="1058" d="M92 369l158 30q31 -284 299 -284h2q135 0 196.5 49t61.5 123q0 41 -13.5 69.5t-48 53t-96 46t-155.5 48.5q-98 27 -168 57.5t-114 67.5t-63.5 83t-19.5 105q0 57 24.5 110.5t71.5 95.5t118 67.5t163 25.5q94 0 165.5 -24.5t123 -66.5t84 -98.5t49.5 -121.5l-146 -39 q-29 94 -93 150.5t-183 56.5q-115 0 -168 -48t-53 -104q0 -35 12 -58.5t46 -44t94.5 -41t156.5 -46.5q106 -31 178 -65t114 -74.5t60.5 -91t18.5 -113.5q0 -57 -22.5 -113.5t-72 -101.5t-128 -74t-191.5 -29q-115 0 -198 32t-138 87t-86 128t-39 153z" />
<glyph unicode="t" horiz-adv-x="737" d="M61 936v149h156v267h160v-267h268v-149h-266v-600q0 -92 24.5 -133t108.5 -41h82v-162h-90q-158 0 -224.5 82t-66.5 233v621h-152z" />
<glyph unicode="u" horiz-adv-x="1177" d="M164 379v706h168v-682q0 -152 58.5 -215t193.5 -63q123 0 188.5 75.5t65.5 211.5v673h166v-1085h-164v104h-4q-31 -39 -72 -67q-35 -27 -89 -47.5t-128 -20.5q-176 0 -279.5 99.5t-103.5 310.5z" />
<glyph unicode="v" horiz-adv-x="1114" d="M51 1085h172l332 -849h4l332 849h172l-438 -1085h-136z" />
<glyph unicode="w" horiz-adv-x="1611" d="M92 1085h166l174 -817h4l287 817h151l283 -817h4l195 817h164l-260 -1085h-154l-307 887h-4l-308 -887h-155z" />
<glyph unicode="x" horiz-adv-x="1048" d="M51 0l367 557l-344 528h184l264 -417h4l265 417h182l-342 -528l366 -557h-186l-287 446h-4l-282 -446h-187z" />
<glyph unicode="y" horiz-adv-x="1017" d="M41 1085h176l307 -749h4l277 749h172l-584 -1546h-162l218 576z" />
<glyph unicode="z" horiz-adv-x="1126" d="M113 0v131l682 797v4h-643v153h860v-127l-676 -798v-4h678v-156h-901z" />
<glyph unicode="{" horiz-adv-x="792" d="M113 492v182h57q59 0 84 29.5t25 95.5v409q0 88 19 143.5t55 87t86 44t110 12.5h110v-123h-108q-74 0 -107.5 -38t-33.5 -140v-401q0 -63 -20.5 -104.5t-45.5 -64t-48.5 -31.5t-29.5 -9q4 -2 26.5 -11.5t49.5 -33t47.5 -62.5t20.5 -98v-449q0 -102 33.5 -140t109.5 -38 h106v-123h-110q-59 0 -109.5 11.5t-86.5 43t-55 88t-19 144.5v457q0 66 -25 92.5t-84 26.5h-57z" />
<glyph unicode="|" horiz-adv-x="559" d="M215 -614v2201h129v-2201h-129z" />
<glyph unicode="}" horiz-adv-x="792" d="M52 -248v-123h110q59 0 109.5 11.5t86.5 43t55 88t19 144.5v457q0 66 25 92.5t84 26.5h57v182h-57q-59 0 -84 29.5t-25 95.5v409q0 88 -19 143.5t-55 87t-86 44t-110 12.5h-110v-123h108q74 0 107.5 -38t33.5 -140v-401q0 -63 20.5 -104.5t45.5 -64t48.5 -31.5t29.5 -9 q-4 -2 -26.5 -11.5t-49.5 -33t-47.5 -62.5t-20.5 -98v-449q0 -102 -33.5 -140t-109.5 -38h-106z" />
<glyph unicode="~" horiz-adv-x="1222" d="M113 653q12 55 33.5 107.5t56.5 94.5t82 66.5t108 24.5q76 0 134.5 -27.5t108.5 -61.5t96 -61.5t97 -27.5q43 0 71 17.5t46.5 44t29.5 59.5t21 61l113 -35q-12 -55 -33.5 -107t-56.5 -94t-82 -66.5t-109 -24.5q-76 0 -134 27.5t-108 61t-96.5 61.5t-97.5 28 q-43 0 -70.5 -17.5t-46 -44t-29.5 -59.5t-22 -62z" />
<glyph unicode="&#xa1;" horiz-adv-x="669" d="M186 849h240v236h-240v-236zM223 -349h168v1008h-168v-1008z" />
<glyph unicode="&#xa2;" horiz-adv-x="1171" d="M123 543q0 129 36 232.5t97 176t144 114.5t180 48v178h71v-178q82 -6 151.5 -36.5t123 -83t88.5 -123t47 -152.5l-158 -33q-10 49 -29.5 96t-50 85t-72.5 63.5t-100 32.5v-840q57 6 101.5 33.5t76 68.5t51 90.5t27.5 100.5l162 -33q-12 -90 -48 -164t-90 -127t-126 -84 t-154 -37v-196h-71v196q-100 6 -184.5 47t-145 114t-94 176.5t-33.5 234.5zM289 543q0 -186 77.5 -296t213.5 -124v840q-129 -14 -210 -120.5t-81 -299.5z" />
<glyph unicode="&#xa3;" horiz-adv-x="1351" d="M195 0v156h75q68 0 96.5 27.5t28.5 97.5v370h-200v129h200v252q0 106 29 187t81 135.5t124.5 82t161.5 27.5q174 0 275 -100t126 -291l-156 -33q-23 135 -76 203t-167 68q-229 0 -230 -291v-240h412v-129h-412v-495h635v-156h-1003z" />
<glyph unicode="&#xa4;" horiz-adv-x="1390" d="M174 233l133 134q-47 63 -71.5 141t-24.5 166q0 86 24.5 162.5t71.5 142.5l-133 133l82 82l129 -131q63 53 141 85t168 32q92 0 172 -30t142 -83l127 127l82 -82l-132 -131q45 -66 70 -142.5t25 -164.5q0 -90 -25 -168t-72 -141l134 -132l-82 -81l-131 129 q-61 -49 -139.5 -77t-170.5 -28t-170 27.5t-137 79.5l-131 -131zM395 672q0 -96 27 -161t68.5 -105.5t96 -58t109.5 -17.5q53 0 106.5 17.5t96.5 58t69.5 105t26.5 161.5q0 98 -26.5 164.5t-69.5 107.5t-96 59.5t-107 18.5q-55 0 -109.5 -18.5t-96 -59.5t-68.5 -107.5 t-27 -164.5z" />
<glyph unicode="&#xa5;" horiz-adv-x="1335" d="M113 1434h186l367 -662h4l366 662h187l-394 -691h347v-139h-422v-182h422v-137h-424v-285h-166v285h-426v137h422v182h-422v139h346z" />
<glyph unicode="&#xa6;" horiz-adv-x="583" d="M215 -268v669h154v-669h-154zM215 657v670h154v-670h-154z" />
<glyph unicode="&#xa7;" horiz-adv-x="1282" d="M135 608q-2 98 50.5 171t125.5 120q-35 39 -56.5 91t-21.5 122q0 78 30 142.5t81 111.5t121 72.5t151 25.5q82 0 156 -23.5t130 -69.5t93 -115.5t49 -161.5l-163 -31q-23 133 -86.5 190.5t-171.5 57.5q-61 0 -103.5 -17.5t-68 -45t-38 -62.5t-12.5 -70q0 -74 44 -125 t137 -88l299 -119q145 -57 204.5 -128.5t61.5 -170.5q2 -98 -52.5 -170.5t-125.5 -119.5q37 -39 58.5 -91.5t21.5 -121.5q0 -78 -30 -142.5t-81 -111.5t-120.5 -73t-151.5 -26q-84 0 -157 23.5t-129 70t-93 116t-49 161.5l163 31q23 -133 86.5 -190.5t171.5 -57.5 q61 0 103.5 17.5t68 45t38 62t12.5 69.5q0 78 -44 127.5t-137 85.5l-297 119q-145 57 -205.5 129t-62.5 170zM305 618q0 -115 180 -184l297 -115q25 -10 41.5 -18t32.5 -18q49 35 86 84t37 108q0 115 -182 184l-295 115q-25 10 -43.5 18.5t-32.5 16.5q-47 -33 -84 -82 t-37 -109z" />
<glyph unicode="&#xa8;" horiz-adv-x="845" d="M133 1251v187h186v-187h-186zM526 1251v187h187v-187h-187z" />
<glyph unicode="&#xa9;" horiz-adv-x="1484" d="M113 725q0 133 48 247.5t132 199.5t199.5 133.5t248.5 48.5q135 0 251 -48.5t201 -133.5t133 -199.5t48 -247.5q0 -135 -48 -251t-133 -201t-201 -133t-251 -48q-133 0 -248.5 48t-199.5 133t-132 201t-48 251zM221 725q0 -113 40 -209t109.5 -166.5t164.5 -110.5 t206 -40t207 40t166 110.5t110 166.5t40 209q0 111 -40 206t-110 165.5t-166 110.5t-207 40t-206 -40t-164.5 -110.5t-109.5 -165.5t-40 -206zM434 715q0 96 25.5 171t68.5 125t100.5 75.5t123.5 25.5q119 0 189.5 -77t84.5 -191l-123 -23q-6 33 -16 63.5t-28.5 55.5 t-44.5 39t-62 14q-78 0 -132.5 -68.5t-54.5 -209.5t55.5 -203.5t129.5 -62.5q76 0 111.5 53t45.5 133l125 -29q-18 -125 -90 -200.5t-192 -75.5q-66 0 -123.5 24.5t-100.5 73.5t-67.5 121t-24.5 166z" />
<glyph unicode="&#xaa;" horiz-adv-x="739" d="M102 950q0 82 49.5 126t165.5 75q98 25 137.5 44t39.5 60q0 35 -28 60.5t-95 25.5q-76 0 -108 -35.5t-42 -84.5l-102 39q16 76 77.5 130t172.5 54q51 0 96 -13.5t79 -41t53 -71.5t19 -108v-424h-104v66h-2q-4 -8 -17.5 -22.5t-36 -28t-56 -23.5t-78.5 -10 q-117 0 -168.5 54.5t-51.5 127.5zM219 958q0 -41 25.5 -64.5t87.5 -23.5q88 0 128 38t40 85v142h-2q-4 -6 -9.5 -13.5t-21.5 -16.5t-46 -19.5t-79 -22.5q-41 -10 -65.5 -21.5t-37 -23.5t-16.5 -27.5t-4 -32.5z" />
<glyph unicode="&#xab;" horiz-adv-x="1144" d="M195 575l221 381h168l-224 -381l224 -374h-168zM582 575l221 381h168l-223 -381l223 -374h-168z" />
<glyph unicode="&#xac;" horiz-adv-x="1284" d="M133 770v154h977v-508h-164v354h-813z" />
<glyph unicode="&#xad;" horiz-adv-x="899" d="M113 623v151h673v-151h-673z" />
<glyph unicode="&#xae;" horiz-adv-x="946" d="M113 1085q0 76 27.5 141.5t76.5 115t114.5 77t141.5 27.5t141.5 -27.5t114.5 -77t77 -115t28 -141.5t-28 -141t-77 -114.5t-114.5 -77t-141.5 -27.5t-141.5 27.5t-114.5 77t-76.5 115t-27.5 140.5zM176 1085q0 -63 22.5 -118.5t62.5 -95.5t94.5 -62.5t117.5 -22.5 t117.5 22.5t94.5 62.5t62.5 95.5t22.5 118.5t-22.5 119t-62.5 95.5t-94 62t-118 22.5q-63 0 -117.5 -22.5t-94.5 -62t-62.5 -95t-22.5 -119.5zM346 868v432h133q74 0 115 -31.5t41 -97.5q0 -53 -30 -82.5t-77 -41.5l97 -179h-66l-92 176h-64v-176h-57zM403 1098h78 q37 0 67 13t30 60t-29 62.5t-68 15.5h-78v-151z" />
<glyph unicode="&#xaf;" horiz-adv-x="856" d="M133 1270v125h590v-125h-590z" />
<glyph unicode="&#xb0;" horiz-adv-x="804" d="M123 1286q0 59 21.5 112.5t58.5 93.5t88 63.5t110 23.5q61 0 112.5 -22.5t89.5 -62.5t58.5 -93t20.5 -115q0 -61 -20.5 -114.5t-58.5 -92.5t-89.5 -60.5t-112.5 -21.5t-112 22.5t-88 61.5t-57.5 91.5t-20.5 113.5zM260 1286q0 -49 12.5 -80.5t32 -51t44.5 -27t52 -7.5 t51.5 7.5t45 27t33 51t12.5 80.5t-12.5 82t-33 52.5t-45 27.5t-51.5 8t-52 -8t-44.5 -27.5t-32 -52.5t-12.5 -82z" />
<glyph unicode="&#xb1;" horiz-adv-x="1255" d="M113 856v143h438v342h154v-342h438v-143h-438v-385h-154v385h-438zM170 197v143h934v-143h-934z" />
<glyph unicode="&#xb2;" horiz-adv-x="741" d="M72 1561q8 141 90 217t219 76q127 0 205 -73t78 -191q0 -57 -20.5 -99.5t-53.5 -75t-75 -58t-85 -46.5q-80 -43 -121 -66.5t-59 -52.5q-14 -18 -17.5 -39.5t-3.5 -48.5h441v-135h-590v107q0 59 13 103t40 81q31 41 79 68.5t114 62.5q47 27 86 47.5t66.5 44t42 50 t14.5 65.5q0 49 -38 92t-116 43q-82 0 -126 -49t-52 -139z" />
<glyph unicode="&#xb3;" horiz-adv-x="727" d="M41 1258l133 29q12 -104 57 -154.5t134 -50.5q88 0 130 41t42 104q0 72 -47.5 111t-133.5 39h-53v108h41q25 0 51.5 5t50 18.5t39 36t15.5 57.5q0 59 -37 94t-105 35t-102.5 -40t-44.5 -105l-127 24q10 113 86 178.5t192 65.5q55 0 103.5 -15.5t85.5 -46t57.5 -73.5 t20.5 -99q0 -41 -12.5 -70.5t-31 -51t-39 -34t-36.5 -18.5v-4q23 -6 50.5 -22.5t51 -43t39 -65.5t15.5 -92q0 -55 -20.5 -102.5t-58.5 -82t-94.5 -55t-127.5 -20.5q-129 0 -217.5 72.5t-106.5 226.5z" />
<glyph unicode="&#xb4;" horiz-adv-x="589" d="M113 1219l159 247h205l-219 -247h-145z" />
<glyph unicode="&#xb5;" horiz-adv-x="1230" d="M184 -461v1546h168v-657q0 -154 78 -228.5t203 -74.5t196.5 77t71.5 206v677h166v-1085h-164v104h-4q-4 -6 -24.5 -28.5t-55.5 -46t-85 -42t-113 -18.5q-78 0 -151 24.5t-122 78.5v-533h-164z" />
<glyph unicode="&#xb6;" horiz-adv-x="1130" d="M31 971q0 82 26.5 145.5t72.5 106.5t107.5 65.5t131.5 22.5h587v-1590h-141v1440h-303v-1440h-152v910q-68 2 -128 26.5t-105 69.5t-70.5 106.5t-25.5 137.5z" />
<glyph unicode="&#xb7;" horiz-adv-x="630" d="M195 659v242h241v-242h-241z" />
<glyph unicode="&#xb8;" horiz-adv-x="577" d="M59 -352l62 84q18 -16 59 -40t92 -24q53 0 86 21.5t33 62.5q0 43 -32.5 62.5t-73.5 19.5q-25 0 -45.5 -6t-36.5 -12q-18 -8 -31 -17l-70 37l97 164h96l-78 -119l2 -2q10 8 40 19.5t71 11.5q68 0 122 -40t54 -124q0 -86 -64.5 -134t-158.5 -48q-45 0 -83 10t-66 23.5 t-47 28t-28 22.5z" />
<glyph unicode="&#xb9;" horiz-adv-x="546" d="M61 1569v150l201 125h121v-875h-133v717z" />
<glyph unicode="&#xba;" horiz-adv-x="741" d="M82 1108q0 82 23.5 145.5t63.5 106.5t92 64.5t112 21.5q57 0 108 -21.5t91 -64.5t63.5 -106.5t23.5 -145.5t-22.5 -145.5t-61 -106.5t-91 -65.5t-111.5 -22.5q-61 0 -113.5 22.5t-92.5 65.5t-62.5 106.5t-22.5 145.5zM203 1108q0 -115 48 -172t122 -57q72 0 119 59 t47 170t-47.5 169t-118.5 58q-74 0 -122 -57t-48 -170z" />
<glyph unicode="&#xbb;" horiz-adv-x="1144" d="M143 201h168l221 374l-221 381h-168l223 -381zM530 201h168l221 374l-221 381h-168l224 -381z" />
<glyph unicode="&#xbc;" horiz-adv-x="1718" d="M71 1159v150l201 125h121v-875h-133v717zM268 -80l1001 1669l105 -65l-1000 -1667zM972 205v125l332 547h195v-547h106v-125h-106v-203h-133v203h-394zM1097 330h269v432h-4z" />
<glyph unicode="&#xbd;" horiz-adv-x="1812" d="M71 1159v150l201 125h121v-875h-133v717zM268 -80l1001 1669l105 -65l-1000 -1667zM1071 594q8 141 90 217t219 76q127 0 205 -73t78 -191q0 -57 -20.5 -99.5t-53.5 -75t-75 -58t-85 -46.5q-80 -43 -121 -66.5t-59 -52.5q-14 -18 -17.5 -39.5t-3.5 -48.5h441v-135h-590 v107q0 59 13 103t40 81q31 41 79 68.5t114 62.5q47 27 86 47.5t66.5 44t42 50t14.5 65.5q0 49 -38 92t-116 43q-82 0 -126 -49t-52 -139z" />
<glyph unicode="&#xbe;" horiz-adv-x="1828" d="M82 848l133 29q12 -104 57 -154.5t134 -50.5q88 0 130 41t42 104q0 72 -47.5 111t-133.5 39h-53v108h41q25 0 51.5 5t50 18.5t39 36t15.5 57.5q0 59 -37 94t-105 35t-102.5 -40t-44.5 -105l-127 24q10 113 86 178.5t192 65.5q55 0 103.5 -15.5t85.5 -46t57.5 -73.5 t20.5 -99q0 -41 -12.5 -70.5t-31 -51t-39 -34t-36.5 -18.5v-4q23 -6 50.5 -22.5t51 -43t39 -65.5t15.5 -92q0 -55 -20.5 -102.5t-58.5 -82t-94.5 -55t-127.5 -20.5q-129 0 -217.5 72.5t-106.5 226.5zM436 -80l1001 1669l105 -65l-1000 -1667zM1114 205v125l332 547h195v-547 h106v-125h-106v-203h-133v203h-394zM1239 330h269v432h-4z" />
<glyph unicode="&#xbf;" horiz-adv-x="1054" d="M61 2q0 74 16.5 127t46.5 94t71 75.5t90 71.5q51 41 88 69t61.5 52.5t35.5 49t11 59.5v96h162v-113q0 -37 -8 -67.5t-27.5 -59t-52.5 -59.5t-82 -68t-93 -69.5t-77 -69.5t-52.5 -81t-19.5 -101q0 -39 13.5 -80t44 -75t80 -55.5t123.5 -21.5q84 0 139 28t89 72t48 100 t18 112l166 -17q-2 -96 -32.5 -178t-89 -142.5t-143.5 -95t-200 -34.5q-94 0 -171.5 28.5t-134 78.5t-88.5 121t-32 153zM436 849v236h240v-236h-240z" />
<glyph unicode="&#xc0;" horiz-adv-x="1280" d="M41 0l516 1434h166l516 -1434h-172l-106 281h-644l-104 -281h-172zM346 1815h206l160 -248h-145zM369 428h542l-270 778h-4z" />
<glyph unicode="&#xc1;" horiz-adv-x="1280" d="M41 0l516 1434h166l516 -1434h-172l-106 281h-644l-104 -281h-172zM369 428h542l-270 778h-4zM588 1567l161 248h205l-221 -248h-145z" />
<glyph unicode="&#xc2;" horiz-adv-x="1280" d="M41 0l516 1434h166l516 -1434h-172l-106 281h-644l-104 -281h-172zM369 428h542l-270 778h-4zM398 1608l135 174h223l135 -174l-98 -78l-150 188l-149 -188z" />
<glyph unicode="&#xc3;" horiz-adv-x="1280" d="M41 0l516 1434h166l516 -1434h-172l-106 281h-644l-104 -281h-172zM355 1567q6 37 18 71.5t33.5 60t53.5 42t77 16.5q39 0 69.5 -12t57.5 -25.5t52.5 -26t53.5 -12.5q57 0 74 66h90q-6 -37 -18 -72t-32.5 -60.5t-52.5 -42t-77 -16.5q-41 0 -71.5 12.5t-58.5 26 t-53.5 25.5t-52.5 12q-33 0 -49 -17.5t-24 -47.5h-90zM369 428h542l-270 778h-4z" />
<glyph unicode="&#xc4;" horiz-adv-x="1280" d="M41 0l516 1434h166l516 -1434h-172l-106 281h-644l-104 -281h-172zM354 1567v186h186v-186h-186zM369 428h542l-270 778h-4zM747 1567v186h187v-186h-187z" />
<glyph unicode="&#xc5;" horiz-adv-x="1280" d="M41 0l516 1434h166l516 -1434h-172l-106 281h-644l-104 -281h-172zM369 428h542l-270 778h-4zM441 1610q0 43 15 81t42 66.5t63.5 45t79.5 16.5q90 0 145.5 -60.5t55.5 -148.5q0 -92 -55.5 -150.5t-145.5 -58.5t-145 60.5t-55 148.5zM545 1612q0 -59 29.5 -89t66.5 -30 t68 29.5t31 89.5q0 61 -31 89t-68 28t-66.5 -28t-29.5 -89z" />
<glyph unicode="&#xc6;" horiz-adv-x="1769" d="M41 0l539 1434h1046v-156h-627v-465h570v-149h-570v-508h627v-156h-795v305h-503l-113 -305h-174zM379 453h452v825h-147z" />
<glyph unicode="&#xc7;" horiz-adv-x="1366" d="M113 729q0 184 51 322.5t136 230.5t194.5 137t226.5 45t210 -36.5t160.5 -103.5t110.5 -159t58 -200l-173 -31q-12 74 -36.5 140.5t-66.5 116.5t-106.5 81t-156.5 31q-86 0 -164 -34t-136.5 -104.5t-93 -178t-34.5 -257.5q0 -154 32.5 -266.5t90 -187t136.5 -110.5 t169 -36q96 0 161.5 32t107.5 87t64.5 129t30.5 155l179 -22q-10 -123 -50 -223.5t-110 -171t-166 -108.5t-217 -38q-117 0 -226.5 42t-194.5 132t-136 234.5t-51 351.5zM579 -352l62 84q18 -16 59 -40t92 -24q53 0 86 21.5t33 62.5q0 43 -32.5 62.5t-73.5 19.5 q-25 0 -45.5 -6t-36.5 -12q-18 -8 -31 -17l-70 37l97 164h96l-78 -119l2 -2q10 8 40 19.5t71 11.5q68 0 122 -40t54 -124q0 -86 -64.5 -134t-158.5 -48q-45 0 -83 10t-66 23.5t-47 28t-28 22.5z" />
<glyph unicode="&#xc8;" horiz-adv-x="1200" d="M195 0v1434h862v-156h-692v-465h634v-151h-634v-506h692v-156h-862zM383 1815h206l160 -248h-145z" />
<glyph unicode="&#xc9;" horiz-adv-x="1200" d="M195 0v1434h862v-156h-692v-465h634v-151h-634v-506h692v-156h-862zM547 1567l161 248h205l-221 -248h-145z" />
<glyph unicode="&#xca;" horiz-adv-x="1200" d="M195 0v1434h862v-156h-692v-465h634v-151h-634v-506h692v-156h-862zM402 1608l135 174h223l135 -174l-98 -78l-150 188l-149 -188z" />
<glyph unicode="&#xcb;" horiz-adv-x="1200" d="M195 0v1434h862v-156h-692v-465h634v-151h-634v-506h692v-156h-862zM346 1567v186h186v-186h-186zM739 1567v186h187v-186h-187z" />
<glyph unicode="&#xcc;" horiz-adv-x="579" d="M-20 1815h206l160 -248h-145zM205 0v1434h170v-1434h-170z" />
<glyph unicode="&#xcd;" horiz-adv-x="579" d="M197 1567l161 248h205l-221 -248h-145zM205 0v1434h170v-1434h-170z" />
<glyph unicode="&#xce;" horiz-adv-x="579" d="M33 1608l135 174h223l135 -174l-98 -78l-150 188l-149 -188zM205 0v1434h170v-1434h-170z" />
<glyph unicode="&#xcf;" horiz-adv-x="579" d="M-14 1567v186h186v-186h-186zM205 0v1434h170v-1434h-170zM379 1567v186h187v-186h-187z" />
<glyph unicode="&#xd0;" horiz-adv-x="1425" d="M82 659v160h141v615h479q121 0 233.5 -42t198.5 -130t137.5 -222.5t51.5 -320.5q0 -207 -53.5 -344t-142.5 -221t-202.5 -119t-234.5 -35h-467v659h-141zM391 156h283q106 0 193 30.5t147.5 98t93 175t32.5 259.5q0 143 -31.5 248.5t-91 174t-143.5 102.5t-188 34h-295 v-459h381v-160h-381v-503z" />
<glyph unicode="&#xd1;" horiz-adv-x="1398" d="M195 0v1434h184l653 -1153h4v1153h168v-1434h-178l-657 1153h-4v-1153h-170zM416 1567q6 37 18 71.5t33.5 60t53.5 42t77 16.5q39 0 69.5 -12t57.5 -25.5t52.5 -26t53.5 -12.5q57 0 74 66h90q-6 -37 -18 -72t-32.5 -60.5t-52.5 -42t-77 -16.5q-41 0 -71.5 12.5t-58.5 26 t-53.5 25.5t-52.5 12q-33 0 -49 -17.5t-24 -47.5h-90z" />
<glyph unicode="&#xd2;" d="M113 729q0 184 51 322.5t136 230.5t194.5 137t226.5 45q115 0 222.5 -47t191.5 -140t135 -232.5t51 -323.5q0 -207 -51 -349.5t-135 -232.5t-191.5 -130t-222.5 -40q-117 0 -226.5 42t-194.5 132t-136 234.5t-51 351.5zM293 729q0 -154 32.5 -266.5t90 -187t136.5 -110.5 t169 -36q88 0 165 35t133 107.5t89 184t33 265.5q0 150 -34 259.5t-91.5 181t-134 106.5t-160.5 35q-86 0 -164 -34t-136.5 -104.5t-93 -178t-34.5 -257.5zM437 1815h206l160 -248h-145z" />
<glyph unicode="&#xd3;" d="M113 729q0 184 51 322.5t136 230.5t194.5 137t226.5 45q115 0 222.5 -47t191.5 -140t135 -232.5t51 -323.5q0 -207 -51 -349.5t-135 -232.5t-191.5 -130t-222.5 -40q-117 0 -226.5 42t-194.5 132t-136 234.5t-51 351.5zM293 729q0 -154 32.5 -266.5t90 -187t136.5 -110.5 t169 -36q88 0 165 35t133 107.5t89 184t33 265.5q0 150 -34 259.5t-91.5 181t-134 106.5t-160.5 35q-86 0 -164 -34t-136.5 -104.5t-93 -178t-34.5 -257.5zM645 1567l161 248h205l-221 -248h-145z" />
<glyph unicode="&#xd4;" d="M113 729q0 184 51 322.5t136 230.5t194.5 137t226.5 45q115 0 222.5 -47t191.5 -140t135 -232.5t51 -323.5q0 -207 -51 -349.5t-135 -232.5t-191.5 -130t-222.5 -40q-117 0 -226.5 42t-194.5 132t-136 234.5t-51 351.5zM293 729q0 -154 32.5 -266.5t90 -187t136.5 -110.5 t169 -36q88 0 165 35t133 107.5t89 184t33 265.5q0 150 -34 259.5t-91.5 181t-134 106.5t-160.5 35q-86 0 -164 -34t-136.5 -104.5t-93 -178t-34.5 -257.5zM492 1608l135 174h223l135 -174l-98 -78l-150 188l-149 -188z" />
<glyph unicode="&#xd5;" d="M113 729q0 184 51 322.5t136 230.5t194.5 137t226.5 45q115 0 222.5 -47t191.5 -140t135 -232.5t51 -323.5q0 -207 -51 -349.5t-135 -232.5t-191.5 -130t-222.5 -40q-117 0 -226.5 42t-194.5 132t-136 234.5t-51 351.5zM293 729q0 -154 32.5 -266.5t90 -187t136.5 -110.5 t169 -36q88 0 165 35t133 107.5t89 184t33 265.5q0 150 -34 259.5t-91.5 181t-134 106.5t-160.5 35q-86 0 -164 -34t-136.5 -104.5t-93 -178t-34.5 -257.5zM447 1567q6 37 18 71.5t33.5 60t53.5 42t77 16.5q39 0 69.5 -12t57.5 -25.5t52.5 -26t53.5 -12.5q57 0 74 66h90 q-6 -37 -18 -72t-32.5 -60.5t-52.5 -42t-77 -16.5q-41 0 -71.5 12.5t-58.5 26t-53.5 25.5t-52.5 12q-33 0 -49 -17.5t-24 -47.5h-90z" />
<glyph unicode="&#xd6;" d="M113 729q0 184 51 322.5t136 230.5t194.5 137t226.5 45q115 0 222.5 -47t191.5 -140t135 -232.5t51 -323.5q0 -207 -51 -349.5t-135 -232.5t-191.5 -130t-222.5 -40q-117 0 -226.5 42t-194.5 132t-136 234.5t-51 351.5zM293 729q0 -154 32.5 -266.5t90 -187t136.5 -110.5 t169 -36q88 0 165 35t133 107.5t89 184t33 265.5q0 150 -34 259.5t-91.5 181t-134 106.5t-160.5 35q-86 0 -164 -34t-136.5 -104.5t-93 -178t-34.5 -257.5zM440 1567v186h186v-186h-186zM833 1567v186h187v-186h-187z" />
<glyph unicode="&#xd7;" horiz-adv-x="1122" d="M113 344l346 344l-326 326l105 102l323 -323l326 323l102 -102l-325 -326l346 -344l-103 -102l-346 344l-344 -344z" />
<glyph unicode="&#xd8;" d="M113 729q0 184 51 322.5t136 230.5t194.5 137t226.5 45q168 0 311 -96l55 96l84 -49l-63 -110q96 -94 154.5 -239.5t58.5 -344.5q0 -207 -51 -349.5t-135 -232.5t-191.5 -130t-222.5 -40q-86 0 -169 22.5t-155 69.5l-53 -92l-84 47l62 107q-94 90 -151.5 238.5 t-57.5 367.5zM293 729q0 -152 31.5 -262.5t87.5 -185.5l538 944q-102 78 -229 78q-86 0 -164 -34t-136.5 -104.5t-93 -178t-34.5 -257.5zM481 209q51 -41 111.5 -60.5t128.5 -19.5q88 0 165 35t133 107.5t89 184t33 265.5q0 145 -32 252.5t-87 179.5z" />
<glyph unicode="&#xd9;" horiz-adv-x="1345" d="M164 467v967h170v-955q0 -174 85 -262t253 -88q170 0 256 89t86 257v959h168v-967q0 -250 -135.5 -374t-374.5 -124q-240 0 -374 124t-134 374zM418 1815h206l160 -248h-145z" />
<glyph unicode="&#xda;" horiz-adv-x="1345" d="M164 467v967h170v-955q0 -174 85 -262t253 -88q170 0 256 89t86 257v959h168v-967q0 -250 -135.5 -374t-374.5 -124q-240 0 -374 124t-134 374zM631 1567l161 248h205l-221 -248h-145z" />
<glyph unicode="&#xdb;" horiz-adv-x="1345" d="M164 467v967h170v-955q0 -174 85 -262t253 -88q170 0 256 89t86 257v959h168v-967q0 -250 -135.5 -374t-374.5 -124q-240 0 -374 124t-134 374zM449 1608l135 174h223l135 -174l-98 -78l-150 188l-149 -188z" />
<glyph unicode="&#xdc;" horiz-adv-x="1345" d="M164 467v967h170v-955q0 -174 85 -262t253 -88q170 0 256 89t86 257v959h168v-967q0 -250 -135.5 -374t-374.5 -124q-240 0 -374 124t-134 374zM397 1567v186h186v-186h-186zM790 1567v186h187v-186h-187z" />
<glyph unicode="&#xdd;" horiz-adv-x="1171" d="M31 1434h188l365 -666h4l364 666h189l-473 -830v-604h-164v604zM531 1567l161 248h205l-221 -248h-145z" />
<glyph unicode="&#xde;" horiz-adv-x="1341" d="M195 0v1434h170v-238h403q111 0 203 -28.5t158.5 -86t103.5 -143.5t37 -199q0 -229 -133 -341.5t-369 -112.5h-403v-285h-170zM365 440h395q74 0 136 16.5t108.5 52.5t72 93t25.5 137t-25.5 137.5t-70.5 94.5t-108.5 53t-137.5 16h-395v-600z" />
<glyph unicode="&#xdf;" horiz-adv-x="1181" d="M154 0v1008q0 115 34.5 200.5t94 142t138.5 85t169 28.5q88 0 164.5 -27.5t132 -77.5t87.5 -121t32 -159q0 -70 -21.5 -120t-50.5 -82.5t-56.5 -50t-39.5 -21.5v-4q18 -6 57 -26.5t78 -61.5t67.5 -108.5t28.5 -166.5q0 -217 -115.5 -327.5t-361.5 -110.5h-66v147h66 q160 0 238.5 77t78.5 218q0 133 -68.5 203t-215.5 70h-99v139h60q55 0 102 12.5t83 39t56.5 68.5t20.5 99q0 106 -64.5 173t-187.5 67q-147 0 -209.5 -92.5t-62.5 -251.5v-969h-170z" />
<glyph unicode="&#xe0;" horiz-adv-x="1105" d="M102 279q0 68 19.5 120t63.5 91.5t114 71.5t168 56q74 18 131 35t97 37.5t61.5 47t21.5 67.5q0 66 -52 114t-175 48q-63 0 -109.5 -16.5t-77 -46.5t-49 -68.5t-28.5 -83.5l-152 43q12 68 45 127t84 102t122 67.5t159 24.5t163.5 -21.5t129 -67.5t84 -118.5t30.5 -177.5 v-731h-147v119h-4q-12 -20 -38 -46t-67 -49.5t-97 -39t-130 -15.5q-96 0 -164.5 24.5t-114 67.5t-67 99.5t-21.5 118.5zM266 289q0 -74 47 -122t168 -48q78 0 135.5 18.5t96.5 50t57 73.5t18 87v270h-4q-6 -12 -18 -24t-42 -27.5t-82 -35t-136 -42.5q-74 -20 -120 -40.5 t-72.5 -45t-37 -53t-10.5 -61.5zM295 1466h206l160 -247h-145z" />
<glyph unicode="&#xe1;" horiz-adv-x="1105" d="M102 279q0 68 19.5 120t63.5 91.5t114 71.5t168 56q74 18 131 35t97 37.5t61.5 47t21.5 67.5q0 66 -52 114t-175 48q-63 0 -109.5 -16.5t-77 -46.5t-49 -68.5t-28.5 -83.5l-152 43q12 68 45 127t84 102t122 67.5t159 24.5t163.5 -21.5t129 -67.5t84 -118.5t30.5 -177.5 v-731h-147v119h-4q-12 -20 -38 -46t-67 -49.5t-97 -39t-130 -15.5q-96 0 -164.5 24.5t-114 67.5t-67 99.5t-21.5 118.5zM266 289q0 -74 47 -122t168 -48q78 0 135.5 18.5t96.5 50t57 73.5t18 87v270h-4q-6 -12 -18 -24t-42 -27.5t-82 -35t-136 -42.5q-74 -20 -120 -40.5 t-72.5 -45t-37 -53t-10.5 -61.5zM461 1219l159 247h205l-219 -247h-145z" />
<glyph unicode="&#xe2;" horiz-adv-x="1105" d="M102 279q0 68 19.5 120t63.5 91.5t114 71.5t168 56q74 18 131 35t97 37.5t61.5 47t21.5 67.5q0 66 -52 114t-175 48q-63 0 -109.5 -16.5t-77 -46.5t-49 -68.5t-28.5 -83.5l-152 43q12 68 45 127t84 102t122 67.5t159 24.5t163.5 -21.5t129 -67.5t84 -118.5t30.5 -177.5 v-731h-147v119h-4q-12 -20 -38 -46t-67 -49.5t-97 -39t-130 -15.5q-96 0 -164.5 24.5t-114 67.5t-67 99.5t-21.5 118.5zM266 289q0 -74 47 -122t168 -48q78 0 135.5 18.5t96.5 50t57 73.5t18 87v270h-4q-6 -12 -18 -24t-42 -27.5t-82 -35t-136 -42.5q-74 -20 -120 -40.5 t-72.5 -45t-37 -53t-10.5 -61.5zM322 1270l135 174h223l135 -174l-98 -78l-150 188l-149 -188z" />
<glyph unicode="&#xe3;" horiz-adv-x="1105" d="M102 279q0 68 19.5 120t63.5 91.5t114 71.5t168 56q74 18 131 35t97 37.5t61.5 47t21.5 67.5q0 66 -52 114t-175 48q-63 0 -109.5 -16.5t-77 -46.5t-49 -68.5t-28.5 -83.5l-152 43q12 68 45 127t84 102t122 67.5t159 24.5t163.5 -21.5t129 -67.5t84 -118.5t30.5 -177.5 v-731h-147v119h-4q-12 -20 -38 -46t-67 -49.5t-97 -39t-130 -15.5q-96 0 -164.5 24.5t-114 67.5t-67 99.5t-21.5 118.5zM266 289q0 -74 47 -122t168 -48q78 0 135.5 18.5t96.5 50t57 73.5t18 87v270h-4q-6 -12 -18 -24t-42 -27.5t-82 -35t-136 -42.5q-74 -20 -120 -40.5 t-72.5 -45t-37 -53t-10.5 -61.5zM277 1233q6 37 18 71.5t33.5 61.5t53.5 43t77 16q39 0 69.5 -12t57.5 -26.5t52.5 -26.5t53.5 -12q57 0 74 67h90q-6 -37 -18 -71.5t-32.5 -61.5t-52.5 -43t-77 -16q-41 0 -71.5 12t-58.5 26.5t-53.5 26.5t-52.5 12q-33 0 -49 -17t-24 -50 h-90z" />
<glyph unicode="&#xe4;" horiz-adv-x="1105" d="M102 279q0 68 19.5 120t63.5 91.5t114 71.5t168 56q74 18 131 35t97 37.5t61.5 47t21.5 67.5q0 66 -52 114t-175 48q-63 0 -109.5 -16.5t-77 -46.5t-49 -68.5t-28.5 -83.5l-152 43q12 68 45 127t84 102t122 67.5t159 24.5t163.5 -21.5t129 -67.5t84 -118.5t30.5 -177.5 v-731h-147v119h-4q-12 -20 -38 -46t-67 -49.5t-97 -39t-130 -15.5q-96 0 -164.5 24.5t-114 67.5t-67 99.5t-21.5 118.5zM266 289q0 -74 47 -122t168 -48q78 0 135.5 18.5t96.5 50t57 73.5t18 87v270h-4q-6 -12 -18 -24t-42 -27.5t-82 -35t-136 -42.5q-74 -20 -120 -40.5 t-72.5 -45t-37 -53t-10.5 -61.5zM276 1251v187h186v-187h-186zM669 1251v187h187v-187h-187z" />
<glyph unicode="&#xe5;" horiz-adv-x="1105" d="M102 279q0 68 19.5 120t63.5 91.5t114 71.5t168 56q74 18 131 35t97 37.5t61.5 47t21.5 67.5q0 66 -52 114t-175 48q-63 0 -109.5 -16.5t-77 -46.5t-49 -68.5t-28.5 -83.5l-152 43q12 68 45 127t84 102t122 67.5t159 24.5t163.5 -21.5t129 -67.5t84 -118.5t30.5 -177.5 v-731h-147v119h-4q-12 -20 -38 -46t-67 -49.5t-97 -39t-130 -15.5q-96 0 -164.5 24.5t-114 67.5t-67 99.5t-21.5 118.5zM266 289q0 -74 47 -122t168 -48q78 0 135.5 18.5t96.5 50t57 73.5t18 87v270h-4q-6 -12 -18 -24t-42 -27.5t-82 -35t-136 -42.5q-74 -20 -120 -40.5 t-72.5 -45t-37 -53t-10.5 -61.5zM357 1280q0 43 15 81t42 66.5t63.5 45t79.5 16.5q90 0 145.5 -60.5t55.5 -148.5q0 -92 -55.5 -150.5t-145.5 -58.5t-145 59.5t-55 149.5zM461 1282q0 -61 29.5 -91t66.5 -30t68 30t31 91q0 59 -31 87t-68 28t-66.5 -28t-29.5 -87z" />
<glyph unicode="&#xe6;" horiz-adv-x="1871" d="M102 281q0 68 19.5 120t63.5 91.5t114 70t170 55.5t160.5 46.5t93.5 44t44 46t11 50.5q0 31 -12 60.5t-40 53t-73 37t-110 13.5q-66 0 -112 -16.5t-76.5 -45t-48 -68.5t-27.5 -85l-142 47q10 66 43 123t85 100t122 67.5t154 24.5q125 0 223 -44t147 -144q61 90 156.5 139 t216.5 49q111 0 200 -39t152.5 -112.5t98 -180t34.5 -241.5v-49h-802q0 -72 20.5 -139.5t60 -120t101 -83t145.5 -30.5t141.5 24.5t95.5 60.5t59.5 77t35.5 71l131 -73q-23 -61 -63.5 -118t-98 -100t-132 -68.5t-165.5 -25.5q-135 0 -239.5 59.5t-169.5 172.5 q-25 -49 -58.5 -91t-83 -73t-116 -49.5t-156.5 -18.5q-92 0 -161.5 23.5t-116.5 65.5t-71 99.5t-24 123.5zM266 289q0 -74 47 -122t168 -48q78 0 135.5 18.5t96.5 50t57 73.5t18 87v270h-4q-6 -12 -18 -24t-42 -27.5t-82 -35t-136 -42.5q-74 -20 -120 -40.5t-72.5 -45 t-37 -53t-10.5 -61.5zM971 629h635q0 57 -16.5 117.5t-54.5 109.5t-99.5 80t-149.5 31q-90 0 -150.5 -35t-97.5 -85t-52 -109.5t-15 -108.5z" />
<glyph unicode="&#xe7;" horiz-adv-x="1140" d="M102 543q0 135 39 241.5t105.5 180t157 112.5t192.5 39q88 0 164 -29.5t134 -82t96 -125t50 -160.5l-157 -33q-10 53 -32 103.5t-56.5 89.5t-83.5 62.5t-115 23.5q-143 0 -235.5 -108.5t-92.5 -313.5q0 -199 88 -310.5t242 -111.5q66 0 116 25.5t86 67.5t57.5 95 t29.5 107l162 -33q-12 -94 -51.5 -171t-98.5 -130t-136 -83t-167 -30q-106 0 -196.5 38t-157 112t-103.5 180.5t-37 243.5zM438 -352l62 84q18 -16 59 -40t92 -24q53 0 86 21.5t33 62.5q0 43 -32.5 62.5t-73.5 19.5q-25 0 -45.5 -6t-36.5 -12q-18 -8 -31 -17l-70 37l97 164 h96l-78 -119l2 -2q10 8 40 19.5t71 11.5q68 0 122 -40t54 -124q0 -86 -64.5 -134t-158.5 -48q-45 0 -83 10t-66 23.5t-47 28t-28 22.5z" />
<glyph unicode="&#xe8;" horiz-adv-x="1187" d="M102 543q0 131 37 237.5t103.5 181t156.5 114.5t199 40q106 0 196.5 -39t155 -112.5t100 -180t35.5 -241.5v-49h-815q0 -72 20.5 -139.5t61.5 -120t103.5 -83t146.5 -30.5q82 0 137.5 23.5t92 56t58 69.5t36.5 64l135 -88q-27 -53 -68 -103.5t-97 -88.5t-129 -61.5 t-161 -23.5q-109 0 -201 40t-159.5 115t-105.5 180.5t-38 238.5zM274 627h646q-2 59 -19.5 119.5t-55.5 108.5t-98.5 79t-148.5 31t-149.5 -34t-99.5 -85t-56.5 -110.5t-18.5 -108.5zM334 1466h206l160 -247h-145z" />
<glyph unicode="&#xe9;" horiz-adv-x="1187" d="M102 543q0 131 37 237.5t103.5 181t156.5 114.5t199 40q106 0 196.5 -39t155 -112.5t100 -180t35.5 -241.5v-49h-815q0 -72 20.5 -139.5t61.5 -120t103.5 -83t146.5 -30.5q82 0 137.5 23.5t92 56t58 69.5t36.5 64l135 -88q-27 -53 -68 -103.5t-97 -88.5t-129 -61.5 t-161 -23.5q-109 0 -201 40t-159.5 115t-105.5 180.5t-38 238.5zM274 627h646q-2 59 -19.5 119.5t-55.5 108.5t-98.5 79t-148.5 31t-149.5 -34t-99.5 -85t-56.5 -110.5t-18.5 -108.5zM555 1219l159 247h205l-219 -247h-145z" />
<glyph unicode="&#xea;" horiz-adv-x="1187" d="M102 543q0 131 37 237.5t103.5 181t156.5 114.5t199 40q106 0 196.5 -39t155 -112.5t100 -180t35.5 -241.5v-49h-815q0 -72 20.5 -139.5t61.5 -120t103.5 -83t146.5 -30.5q82 0 137.5 23.5t92 56t58 69.5t36.5 64l135 -88q-27 -53 -68 -103.5t-97 -88.5t-129 -61.5 t-161 -23.5q-109 0 -201 40t-159.5 115t-105.5 180.5t-38 238.5zM274 627h646q-2 59 -19.5 119.5t-55.5 108.5t-98.5 79t-148.5 31t-149.5 -34t-99.5 -85t-56.5 -110.5t-18.5 -108.5zM381 1270l135 174h223l135 -174l-98 -78l-150 188l-149 -188z" />
<glyph unicode="&#xeb;" horiz-adv-x="1187" d="M102 543q0 131 37 237.5t103.5 181t156.5 114.5t199 40q106 0 196.5 -39t155 -112.5t100 -180t35.5 -241.5v-49h-815q0 -72 20.5 -139.5t61.5 -120t103.5 -83t146.5 -30.5q82 0 137.5 23.5t92 56t58 69.5t36.5 64l135 -88q-27 -53 -68 -103.5t-97 -88.5t-129 -61.5 t-161 -23.5q-109 0 -201 40t-159.5 115t-105.5 180.5t-38 238.5zM274 627h646q-2 59 -19.5 119.5t-55.5 108.5t-98.5 79t-148.5 31t-149.5 -34t-99.5 -85t-56.5 -110.5t-18.5 -108.5zM340 1251v187h186v-187h-186zM733 1251v187h187v-187h-187z" />
<glyph unicode="&#xec;" horiz-adv-x="514" d="M-34 1466h206l160 -247h-145zM176 0v1085h160v-1085h-160z" />
<glyph unicode="&#xed;" horiz-adv-x="569" d="M205 0v1085h160v-1085h-160zM209 1219l159 247h205l-219 -247h-145z" />
<glyph unicode="&#xee;" horiz-adv-x="507" d="M11 1270l135 174h223l135 -174l-98 -78l-150 188l-149 -188zM174 0v1085h160v-1085h-160z" />
<glyph unicode="&#xef;" horiz-adv-x="536" d="M-19 1251v187h186v-187h-186zM188 0v1085h160v-1085h-160zM374 1251v187h187v-187h-187z" />
<glyph unicode="&#xf0;" horiz-adv-x="1175" d="M102 545q0 141 37 247.5t99.5 179t145.5 108.5t177 36q98 0 171 -32.5t110 -73.5l4 2q-29 92 -73 173t-99 156l-303 -84l-27 89l268 73q-35 43 -73.5 83t-79.5 81v4h188q29 -31 54.5 -62.5t52.5 -66.5l270 76l27 -88l-242 -68q119 -180 191.5 -394t72.5 -437 q0 -143 -34.5 -252t-98 -180.5t-152 -108.5t-194.5 -37q-111 0 -201 37t-154.5 109.5t-100.5 180t-36 249.5zM262 541q0 -219 89 -320.5t243 -101.5t234.5 103.5t80.5 318.5q0 203 -80.5 316.5t-253.5 113.5q-139 0 -226 -103.5t-87 -326.5z" />
<glyph unicode="&#xf1;" horiz-adv-x="1202" d="M174 0v1085h164v-104h4q43 57 126 96t179 39q176 0 283.5 -106.5t107.5 -296.5v-713h-166v659q0 147 -60 225.5t-189 78.5q-125 0 -203 -71t-78 -200v-692h-168zM336 1233q6 37 18 71.5t33.5 61.5t53.5 43t77 16q39 0 69.5 -12t57.5 -26.5t52.5 -26.5t53.5 -12 q57 0 74 67h90q-6 -37 -18 -71.5t-32.5 -61.5t-52.5 -43t-77 -16q-41 0 -71.5 12t-58.5 26.5t-53.5 26.5t-52.5 12q-33 0 -49 -17t-24 -50h-90z" />
<glyph unicode="&#xf2;" horiz-adv-x="1183" d="M102 543q0 139 40 245.5t108.5 179t158 110.5t187.5 38q96 0 184 -38t154.5 -110.5t106.5 -179t40 -245.5t-37.5 -246t-103.5 -179.5t-154 -110.5t-190 -38q-104 0 -194.5 38t-157 110.5t-104.5 179t-38 246.5zM268 543q0 -104 25.5 -184t70 -132.5t104.5 -79t128 -26.5 q66 0 124 27.5t101 81t68.5 132t25.5 181.5q0 102 -24.5 181t-67.5 132t-101 81t-126 28q-70 0 -129 -27t-103.5 -80t-70 -132t-25.5 -183zM291 1466h206l160 -247h-145z" />
<glyph unicode="&#xf3;" horiz-adv-x="1183" d="M102 543q0 139 40 245.5t108.5 179t158 110.5t187.5 38q96 0 184 -38t154.5 -110.5t106.5 -179t40 -245.5t-37.5 -246t-103.5 -179.5t-154 -110.5t-190 -38q-104 0 -194.5 38t-157 110.5t-104.5 179t-38 246.5zM268 543q0 -104 25.5 -184t70 -132.5t104.5 -79t128 -26.5 q66 0 124 27.5t101 81t68.5 132t25.5 181.5q0 102 -24.5 181t-67.5 132t-101 81t-126 28q-70 0 -129 -27t-103.5 -80t-70 -132t-25.5 -183zM537 1219l159 247h205l-219 -247h-145z" />
<glyph unicode="&#xf4;" horiz-adv-x="1183" d="M102 543q0 139 40 245.5t108.5 179t158 110.5t187.5 38q96 0 184 -38t154.5 -110.5t106.5 -179t40 -245.5t-37.5 -246t-103.5 -179.5t-154 -110.5t-190 -38q-104 0 -194.5 38t-157 110.5t-104.5 179t-38 246.5zM268 543q0 -104 25.5 -184t70 -132.5t104.5 -79t128 -26.5 q66 0 124 27.5t101 81t68.5 132t25.5 181.5q0 102 -24.5 181t-67.5 132t-101 81t-126 28q-70 0 -129 -27t-103.5 -80t-70 -132t-25.5 -183zM363 1270l135 174h223l135 -174l-98 -78l-150 188l-149 -188z" />
<glyph unicode="&#xf5;" horiz-adv-x="1183" d="M102 543q0 139 40 245.5t108.5 179t158 110.5t187.5 38q96 0 184 -38t154.5 -110.5t106.5 -179t40 -245.5t-37.5 -246t-103.5 -179.5t-154 -110.5t-190 -38q-104 0 -194.5 38t-157 110.5t-104.5 179t-38 246.5zM268 543q0 -104 25.5 -184t70 -132.5t104.5 -79t128 -26.5 q66 0 124 27.5t101 81t68.5 132t25.5 181.5q0 102 -24.5 181t-67.5 132t-101 81t-126 28q-70 0 -129 -27t-103.5 -80t-70 -132t-25.5 -183zM324 1233q6 37 18 71.5t33.5 61.5t53.5 43t77 16q39 0 69.5 -12t57.5 -26.5t52.5 -26.5t53.5 -12q57 0 74 67h90q-6 -37 -18 -71.5 t-32.5 -61.5t-52.5 -43t-77 -16q-41 0 -71.5 12t-58.5 26.5t-53.5 26.5t-52.5 12q-33 0 -49 -17t-24 -50h-90z" />
<glyph unicode="&#xf6;" horiz-adv-x="1183" d="M102 543q0 139 40 245.5t108.5 179t158 110.5t187.5 38q96 0 184 -38t154.5 -110.5t106.5 -179t40 -245.5t-37.5 -246t-103.5 -179.5t-154 -110.5t-190 -38q-104 0 -194.5 38t-157 110.5t-104.5 179t-38 246.5zM268 543q0 -104 25.5 -184t70 -132.5t104.5 -79t128 -26.5 q66 0 124 27.5t101 81t68.5 132t25.5 181.5q0 102 -24.5 181t-67.5 132t-101 81t-126 28q-70 0 -129 -27t-103.5 -80t-70 -132t-25.5 -183zM321 1251v187h186v-187h-186zM714 1251v187h187v-187h-187z" />
<glyph unicode="&#xf7;" horiz-adv-x="1011" d="M113 653v144h786v-144h-786zM360 289q0 61 42 103t102 42q63 0 105 -42t42 -103t-42 -103.5t-105 -42.5q-59 0 -101.5 42.5t-42.5 103.5zM360 1159q0 61 42 104.5t102 43.5q63 0 105 -43t42 -105q0 -59 -42 -101t-105 -42q-59 0 -101.5 42t-42.5 101z" />
<glyph unicode="&#xf8;" horiz-adv-x="1183" d="M102 543q0 139 40 245.5t108.5 179t158 110.5t187.5 38q84 0 161 -28.5t140 -81.5l80 102l67 -53l-88 -113q59 -72 92 -171t33 -228q0 -139 -37.5 -246t-103.5 -179.5t-154 -110.5t-190 -38q-90 0 -169 28t-142 83l-80 -103l-68 52l88 112q-59 72 -91 172.5t-32 229.5z M268 543q0 -84 16.5 -150.5t45.5 -118.5l471 607q-84 84 -205 84q-70 0 -129 -27t-103.5 -80t-70 -132t-25.5 -183zM383 205q88 -84 213 -84q66 0 124 27.5t101 81t68.5 132t25.5 181.5q0 84 -16 150.5t-45 117.5z" />
<glyph unicode="&#xf9;" horiz-adv-x="1177" d="M164 379v706h168v-682q0 -152 58.5 -215t193.5 -63q123 0 188.5 75.5t65.5 211.5v673h166v-1085h-164v104h-4q-31 -39 -72 -67q-35 -27 -89 -47.5t-128 -20.5q-176 0 -279.5 99.5t-103.5 310.5zM316 1466h206l160 -247h-145z" />
<glyph unicode="&#xfa;" horiz-adv-x="1177" d="M164 379v706h168v-682q0 -152 58.5 -215t193.5 -63q123 0 188.5 75.5t65.5 211.5v673h166v-1085h-164v104h-4q-31 -39 -72 -67q-35 -27 -89 -47.5t-128 -20.5q-176 0 -279.5 99.5t-103.5 310.5zM516 1219l159 247h205l-219 -247h-145z" />
<glyph unicode="&#xfb;" horiz-adv-x="1177" d="M164 379v706h168v-682q0 -152 58.5 -215t193.5 -63q123 0 188.5 75.5t65.5 211.5v673h166v-1085h-164v104h-4q-31 -39 -72 -67q-35 -27 -89 -47.5t-128 -20.5q-176 0 -279.5 99.5t-103.5 310.5zM355 1270l135 174h223l135 -174l-98 -78l-150 188l-149 -188z" />
<glyph unicode="&#xfc;" horiz-adv-x="1177" d="M164 379v706h168v-682q0 -152 58.5 -215t193.5 -63q123 0 188.5 75.5t65.5 211.5v673h166v-1085h-164v104h-4q-31 -39 -72 -67q-35 -27 -89 -47.5t-128 -20.5q-176 0 -279.5 99.5t-103.5 310.5zM307 1251v187h186v-187h-186zM700 1251v187h187v-187h-187z" />
<glyph unicode="&#xfd;" horiz-adv-x="1017" d="M41 1085h176l307 -749h4l277 749h172l-584 -1546h-162l218 576zM463 1219l159 247h205l-219 -247h-145z" />
<glyph unicode="&#xfe;" horiz-adv-x="1224" d="M174 -461v1956h164v-512h4q45 55 120 94t185 39q100 0 187.5 -40t151 -113.5t100 -180t36.5 -239.5t-34.5 -239.5t-98 -180.5t-151.5 -114t-195 -40q-45 0 -90 10.5t-85 29t-71.5 42t-50.5 47.5h-4v-559h-168zM342 356q0 -47 20.5 -89t57.5 -73.5t88 -51t113 -19.5 q164 0 249.5 110.5t85.5 309.5t-87 309.5t-248 110.5q-68 0 -119 -24t-87 -61.5t-54.5 -85t-18.5 -92.5v-344z" />
<glyph unicode="&#xff;" horiz-adv-x="1017" d="M41 1085h176l307 -749h4l277 749h172l-584 -1546h-162l218 576zM237 1251v187h186v-187h-186zM630 1251v187h187v-187h-187z" />
<glyph unicode="&#x152;" horiz-adv-x="2062" d="M113 729q0 184 52 322.5t138 230.5t195.5 137t226.5 45q98 0 187 -33.5t161 -93.5v97h846v-156h-668v-449h611v-149h-611v-524h668v-156h-846v96q-66 -59 -158 -93t-190 -34q-117 0 -226.5 42t-195.5 132t-138 234.5t-52 351.5zM295 729q0 -156 33.5 -268.5t92 -186 t138.5 -109.5t172 -36q229 0 342 170v834q-57 84 -144 127t-198 43q-88 0 -167 -34t-139 -103.5t-95 -178t-35 -258.5z" />
<glyph unicode="&#x153;" horiz-adv-x="1998" d="M102 543q0 139 40 245.5t108.5 179t158 110.5t187.5 38q123 0 229.5 -61.5t171.5 -184.5q63 119 170 182.5t242 63.5q106 0 196.5 -38t155 -111.5t100 -180t35.5 -243.5v-49h-813q0 -72 21.5 -139.5t62.5 -120t104.5 -83t147.5 -30.5t141.5 24.5t95.5 60.5t59.5 77 t35.5 71l131 -73q-23 -61 -63.5 -118t-98 -100t-132.5 -68.5t-165 -25.5q-135 0 -245.5 63.5t-176.5 180.5q-66 -123 -171 -183.5t-234 -60.5q-104 0 -194.5 38t-157 110.5t-104.5 179t-38 246.5zM268 543q0 -104 25.5 -184t70 -132.5t104.5 -79t128 -26.5q66 0 124 27.5 t101 81t68.5 132t25.5 181.5q0 102 -24.5 181t-67.5 132t-101 81t-126 28t-128 -27t-104.5 -80t-70 -132t-25.5 -183zM1085 629h646q0 57 -16.5 116.5t-55.5 108.5t-100.5 81t-149.5 32q-90 0 -151.5 -35t-99.5 -85t-55.5 -109.5t-17.5 -108.5z" />
<glyph unicode="&#x178;" horiz-adv-x="1171" d="M31 1434h188l365 -666h4l364 666h189l-473 -830v-604h-164v604zM311 1567v186h186v-186h-186zM704 1567v186h187v-186h-187z" />
<glyph unicode="&#x2c6;" horiz-adv-x="636" d="M72 1270l135 174h223l135 -174l-98 -78l-150 188l-149 -188z" />
<glyph unicode="&#x2dc;" horiz-adv-x="804" d="M113 1233q6 37 18 71.5t33.5 61.5t53.5 43t77 16q39 0 69.5 -12t57.5 -26.5t52.5 -26.5t53.5 -12q57 0 74 67h90q-6 -37 -18 -71.5t-32.5 -61.5t-52.5 -43t-77 -16q-41 0 -71.5 12t-58.5 26.5t-53.5 26.5t-52.5 12q-33 0 -49 -17t-24 -50h-90z" />
<glyph unicode="&#x2000;" horiz-adv-x="927" />
<glyph unicode="&#x2001;" horiz-adv-x="1854" />
<glyph unicode="&#x2002;" horiz-adv-x="927" />
<glyph unicode="&#x2003;" horiz-adv-x="1854" />
<glyph unicode="&#x2004;" horiz-adv-x="618" />
<glyph unicode="&#x2005;" horiz-adv-x="463" />
<glyph unicode="&#x2006;" horiz-adv-x="309" />
<glyph unicode="&#x2007;" horiz-adv-x="309" />
<glyph unicode="&#x2008;" horiz-adv-x="231" />
<glyph unicode="&#x2009;" horiz-adv-x="370" />
<glyph unicode="&#x200a;" horiz-adv-x="103" />
<glyph unicode="&#x2010;" horiz-adv-x="899" d="M113 623v151h673v-151h-673z" />
<glyph unicode="&#x2011;" horiz-adv-x="899" d="M113 623v151h673v-151h-673z" />
<glyph unicode="&#x2012;" horiz-adv-x="899" d="M113 623v151h673v-151h-673z" />
<glyph unicode="&#x2013;" horiz-adv-x="1247" d="M113 625v149h1022v-149h-1022z" />
<glyph unicode="&#x2014;" horiz-adv-x="2045" d="M215 625v149h1616v-149h-1616z" />
<glyph unicode="&#x2018;" horiz-adv-x="630" d="M195 974v211q0 51 12 94t41 76t75 53.5t113 24.5v-92q-59 -10 -78.5 -43t-19.5 -82h98v-242h-241z" />
<glyph unicode="&#x2019;" horiz-adv-x="630" d="M195 981v92q59 10 78.5 43t19.5 82h-98v242h241v-211q0 -51 -12 -94t-41 -76t-75 -53.5t-113 -24.5z" />
<glyph unicode="&#x201a;" horiz-adv-x="630" d="M195 0v242h241v-211q0 -51 -12 -94t-41 -76t-75 -53.5t-113 -24.5v92q59 10 78.5 43t19.5 82h-98z" />
<glyph unicode="&#x201c;" horiz-adv-x="1001" d="M195 974v211q0 51 12 94t41 76t75 53.5t113 24.5v-92q-59 -10 -78.5 -43t-19.5 -82h98v-242h-241zM565 974v211q0 51 12 94t41 76t75 53.5t113 24.5v-92q-59 -10 -78.5 -43t-19.5 -82h98v-242h-241z" />
<glyph unicode="&#x201d;" horiz-adv-x="1001" d="M195 981v92q59 10 78.5 43t19.5 82h-98v242h241v-211q0 -51 -12 -94t-41 -76t-75 -53.5t-113 -24.5zM566 981v92q59 10 78.5 43t19.5 82h-98v242h241v-211q0 -51 -12 -94t-41 -76t-75 -53.5t-113 -24.5z" />
<glyph unicode="&#x201e;" horiz-adv-x="1001" d="M195 0v242h241v-211q0 -51 -12 -94t-41 -76t-75 -53.5t-113 -24.5v92q59 10 78.5 43t19.5 82h-98zM566 0v242h241v-211q0 -51 -12 -94t-41 -76t-75 -53.5t-113 -24.5v92q59 10 78.5 43t19.5 82h-98z" />
<glyph unicode="&#x2022;" horiz-adv-x="618" d="M123 733q0 84 50 137.5t136 53.5t136.5 -53.5t50.5 -137.5q0 -82 -50.5 -135t-136.5 -53t-136 53t-50 135z" />
<glyph unicode="&#x2026;" horiz-adv-x="1654" d="M195 0v242h241v-242h-241zM713 0v242h241v-242h-241zM1219 0v242h241v-242h-241z" />
<glyph unicode="&#x202f;" horiz-adv-x="370" />
<glyph unicode="&#x2039;" horiz-adv-x="759" d="M195 575l223 381h164l-224 -381l228 -380h-166z" />
<glyph unicode="&#x203a;" horiz-adv-x="759" d="M143 195h166l225 380l-223 381h-164l224 -381z" />
<glyph unicode="&#x205f;" horiz-adv-x="463" />
<glyph unicode="&#x20ac;" horiz-adv-x="1605" d="M154 481v137h172q-4 27 -4 54.5v56.5v33.5t2 34.5h-170v137h186q27 133 85 232.5t137 166t174 99t194 32.5q117 0 210 -36.5t160.5 -103.5t110.5 -159t57 -200l-165 -29q-10 74 -35 140.5t-69 118.5t-110.5 83t-158.5 31q-72 0 -138.5 -22.5t-122 -70t-96.5 -118 t-59 -164.5h428v-137h-446q-2 -16 -2 -34v-34q0 -29 1 -56.5t3 -54.5h444v-137h-422q43 -180 155.5 -269t254.5 -89q96 0 163.5 32.5t111.5 89t67.5 130.5t30.5 155l170 -20q-10 -123 -50.5 -223.5t-110 -171t-165.5 -108.5t-217 -38q-96 0 -189.5 29t-171 90.5t-137 158.5 t-88.5 234h-190z" />
<glyph unicode="&#x2122;" horiz-adv-x="1568" d="M113 1325v109h528v-109h-201v-586h-114v586h-213zM741 739v695h158l211 -527h4l213 527h160v-695h-115v539h-4l-215 -539h-82l-211 537h-4v-537h-115z" />
<glyph unicode="&#x25fc;" horiz-adv-x="1085" d="M0 0v1085h1085v-1085h-1085z" />
</font>
</defs>
</svg>
