<?xml version="1.0" encoding="UTF-8" standalone="no"?>
<svg xmlns:dc="http://purl.org/dc/elements/1.1/"
    xmlns:cc="http://creativecommons.org/ns#"
    xmlns:rdf="http://www.w3.org/1999/02/22-rdf-syntax-ns#"
    xmlns:svg="http://www.w3.org/2000/svg"
    xmlns="http://www.w3.org/2000/svg"
    xmlns:sodipodi="http://sodipodi.sourceforge.net/DTD/sodipodi-0.dtd"
    xmlns:inkscape="http://www.inkscape.org/namespaces/inkscape" version="1.1" id="svg833" xml:space="preserve" width="128" height="128" viewBox="0 0 113.33333 113.33333" sodipodi:docname="AC_logo_dark.mod.svg" inkscape:version="1.0.1 (c497b03c, 2020-09-10)">

    <style>
        @media (prefers-color-scheme: dark) { path { fill: #fff!important; } }
    </style>
    <defs id="defs837">
        <clipPath clipPathUnits="userSpaceOnUse" id="clipPath849">
            <path d="M 0,85 H 180 V 0 H 0 Z" id="path847" />
        </clipPath>
    </defs>
    <sodipodi:namedview pagecolor="#ffffff" bordercolor="#666666" borderopacity="1" objecttolerance="10" gridtolerance="10" guidetolerance="10" />
    <g id="g841" transform="matrix(1.3333333,0,0,-1.3333333,0,113.33333)">
        <path d="M 78.864,6.648 H 6 V 78.945 H 78.864 Z M 1.5,2.148 H 83.364 V 83.445 H 1.5 Z m 40.444,53.316 c 0.851,-1.186 1.629,-2.428 2.324,-3.722 -0.814,-1.312 -1.534,-2.69 -2.142,-4.128 -0.654,1.558 -1.444,3.045 -2.343,4.456 0.651,1.177 1.378,2.307 2.161,3.394 m -11.206,-19.5 h 4.891 c 0,3.773 0.64,7.396 1.801,10.782 1.335,-2.777 2.168,-5.83 2.38,-9.045 v -1.737 h 0.059 V 11.242 h 4.572 v 24.837 c 0,0.4 -0.014,0.795 -0.03,1.191 0.161,3.237 0.924,6.291 2.17,9.069 1.067,-3.263 1.652,-6.747 1.652,-10.375 h 4.673 c 0,9.53 7.68,16.508 16.822,16.508 v 4.659 c -7.938,0 -14.726,-3.986 -18.447,-10.132 -0.455,1.52 -1.003,2.998 -1.635,4.432 4.613,5.916 11.852,9.67 20.082,9.67 v 4.659 c -9.071,0 -16.969,-3.824 -22.385,-9.895 -0.701,1.154 -1.466,2.264 -2.281,3.334 6.231,6.466 15.005,10.501 24.666,10.501 v 4.659 c -10.954,0 -20.759,-4.442 -27.772,-11.569 -6.975,7.131 -16.698,11.557 -27.44,11.557 v -4.683 c 9.439,0 18.126,-4.007 24.32,-10.462 -0.761,-0.993 -1.474,-2.023 -2.136,-3.088 -5.459,6.002 -13.353,9.775 -22.184,9.775 v -4.64 c 7.907,0 15.118,-3.757 19.812,-9.594 -0.746,-1.656 -1.377,-3.373 -1.885,-5.142 -3.564,6.053 -10.118,10.269 -17.927,10.269 v -4.626 c 8.991,0 16.222,-7.552 16.222,-16.192" style="fill:#4f368c;fill-opacity:1;fill-rule:nonzero;stroke:none" id="path855" />
    </g>
</svg>
