<svg id="Layer_1" data-name="Layer 1" xmlns="http://www.w3.org/2000/svg" xmlns:xlink="http://www.w3.org/1999/xlink"
     viewBox="0 0 560 560">
  <defs>
    <style>
      .cls-1{fill:none;}.cls-2{fill:#f9a432;}.cls-2,.cls-6{fill-rule:evenodd;}.cls-3{fill:#ef8621;}.cls-4{clip-path:url(#clip-path);}.cls-5{clip-path:url(#clip-path-2);}.cls-6{fill:#f4d52a;}
    </style>
    <clipPath id="clip-path">
      <path class="cls-1"
            d="M135.64,422.24c-24.56-8.42-45.22-21.88-60.72-39.57C60,365.72,48.86,345.13,45.63,321c-8.51-63.57,19.2-106.55,32.64-127.76a298.51,298.51,0,0,1,49-58.55,329.67,329.67,0,0,1,65.64-47.29A310,310,0,0,1,267.42,58c25.14-6.26,91.8-18.45,141.08,0,16.82,6.28,39.26,24.34,52.8,43.61,14.18,20.19,21.86,43.64,23.26,68.92,1.44,26.29-3.93,54.3-15.7,82.2-12.12,28.7-30.83,56.87-55.37,82.4a328.22,328.22,0,0,1-89.77,65.73c-34.26,17.11-68.78,27-101.37,30.16-8,.79-15.8,1.18-23.45,1.18-22.84,0-44.16-3.45-63.24-10M276.33,42.51a379.88,379.88,0,0,0-90.25,35.75,402.54,402.54,0,0,0-79.47,57.24,372.77,372.77,0,0,0-60.18,71.43C29.62,233.1,16.7,261,8.85,289.43c-8.2,29.56-11.05,60-7,89.82C6,410.72,17.47,438.62,35.13,462c18.61,24.65,44,44.12,74.84,57.11,32.28,13.62,70.14,20,111.31,17.68,42.62-2.4,88-14,133.14-35.92,9.89-4.78,19.44-10,28.76-15.5l93.62,66.57s9,9,16.22,6.31,16.21-13.5,16.21-13.5,2.72-3.61-3.6-12.62c-4.14-5.92-39.49-51.24-64.21-88.47a394.73,394.73,0,0,0,30.63-29.34c31.7-34,55.27-71.75,69.76-110.14,14-37,19.25-74.06,15.54-108.56-3.54-32.83-15.18-63-34.93-88.75-18.64-24.28-42.82-42.32-70.12-54.47-26-11.6-55.1-17.95-85.4-19.36q-6.49-.31-13.08-.3a321.26,321.26,0,0,0-77.5,9.82"/>
    </clipPath>
    <clipPath id="clip-path-2">
      <rect class="cls-1" x="-2.21" y="32.69" width="563.28" height="528.23"/>
    </clipPath>
  </defs>
  <title>qc</title>
  <path class="cls-2"
        d="M375.9,224.16c41.48-6,70.09-44.21,63.92-85.3S395,69.34,353.54,75.36s-70.09,44.21-63.92,85.3,44.81,69.51,86.28,63.5m42.79,11.53c-5-2.47-25.4-10.77-66.75-4.37-60.67,9.37-72.11,45.14-72.18,48-.11,3.63,7.64,89,12.63,91.64,44.52,23.23,139.56-91.3,147.92-119.76,1.84-6.27-6.48-8-21.63-15.55"/>
  <path class="cls-3"
        d="M472.06,414.28c31.71-34,55.28-71.75,69.77-110.14,14-37,19.24-74.06,15.54-108.57-3.54-32.83-15.18-63-34.93-88.74-18.64-24.28-42.82-42.32-70.12-54.47-26-11.59-55.11-17.95-85.41-19.37-29.2-1.35-59.85,1.86-90.58,9.53a379.7,379.7,0,0,0-90.25,35.74,402.31,402.31,0,0,0-79.47,57.24,372.8,372.8,0,0,0-60.18,71.43C29.62,233.1,16.7,261,8.84,289.43c-8.2,29.56-11.05,60-7,89.82C6,410.72,17.48,438.62,35.14,462c18.61,24.64,44,44.11,74.84,57.1,32.29,13.62,70.13,20,111.31,17.67,42.62-2.39,88-14,133.14-35.91,9.9-4.78,19.45-10,28.76-15.5l93.62,66.56s9,9,16.22,6.31,16.21-13.5,16.21-13.5,2.72-3.61-3.6-12.62c-4.14-5.93-39.49-51.24-64.21-88.47a392.53,392.53,0,0,0,30.63-29.34M323.7,400.89c-34.26,17.11-68.77,27-101.36,30.16-31.74,3.14-61.22-.07-86.69-8.81-24.56-8.42-45.22-21.89-60.73-39.56C60,365.72,48.85,345.13,45.63,321c-8.51-63.57,19.2-106.55,32.64-127.76a298.58,298.58,0,0,1,49-58.55,329.47,329.47,0,0,1,65.64-47.29A310.39,310.39,0,0,1,267.41,58c25.14-6.25,91.81-18.44,141.09,0,16.83,6.29,39.25,24.34,52.8,43.62,14.18,20.18,21.86,43.64,23.26,68.92,1.44,26.29-3.92,54.31-15.71,82.2-12.11,28.7-30.83,56.87-55.37,82.4a328.26,328.26,0,0,1-89.78,65.73"/>
  <g class="cls-4">
    <g class="cls-5">
      <rect width="1174" height="1101"  style="fill:#f08721;"/>
    </g>
  </g>
  <path class="cls-6"
        d="M195.35,211c58.51-8.49,98.88-62.36,90.17-120.32S222.32-7.36,163.81,1.13,64.93,63.49,73.64,121.46s63.2,98.07,121.71,89.58m91,21.29c-6.72-3.4-46.54-23.92-102.81-15.56C101,229,85.18,277.56,85,281.5c-.17,4.94,2.76,71.12,8.07,76.66,83.55,87.07,189.31,43.92,241.35,5.7,4.22-3.1-27.54-121.14-48.08-131.53"/>
</svg>